<?xml version="1.0" encoding="UTF-8"?>
<!DOCTYPE svg PUBLIC "-//W3C//DTD SVG 1.1//EN" "http://www.w3.org/Graphics/SVG/1.1/DTD/svg11.dtd">
<!-- Creator: CorelDRAW (Versão de avaliação) -->
<svg xmlns="http://www.w3.org/2000/svg" xml:space="preserve" width="878px" height="912px" version="1.1" style="shape-rendering:geometricPrecision; text-rendering:geometricPrecision; image-rendering:optimizeQuality; fill-rule:evenodd; clip-rule:evenodd"
viewBox="0 0 333.5 346.29"
 xmlns:xlink="http://www.w3.org/1999/xlink"
 xmlns:xodm="http://www.corel.com/coreldraw/odm/2003">
 <defs>
  <style type="text/css">
   <![CDATA[
    .fil1 {fill:white}
    .fil0 {fill:white;fill-rule:nonzero}
   ]]>
  </style>
 </defs>
 <g id="Camada_x0020_1">
  <metadata id="CorelCorpID_0Corel-Layer"/>
  <g id="_228103760">
   <path class="fil0" d="M156.62 46.1c2.75,0 5.19,0.3 7.34,0.89 2.15,0.6 4.19,1.41 6.12,2.45l0 51.37c0,2.6 0.39,5.03 1.17,7.29 0.77,2.26 1.83,4.24 3.17,5.95 1.33,1.7 2.91,3.04 4.72,4 1.82,0.96 3.73,1.44 5.73,1.44 1.7,0.08 3.65,-0.22 5.84,-0.88 2.18,-0.67 4.5,-2.19 6.95,-4.56l0.11 0.11c1.04,1.41 1.93,2.81 2.67,4.22 0.74,1.41 1.37,2.86 1.89,4.34 -2.45,1.93 -5.14,3.41 -8.07,4.45 -2.92,1.04 -6.06,1.55 -9.39,1.55 -3.93,0 -7.6,-0.74 -11.01,-2.22 -3.41,-1.48 -6.39,-3.5 -8.95,-6.06 -2.56,-2.56 -4.58,-5.54 -6.06,-8.95 -1.48,-3.41 -2.23,-7.08 -2.23,-11.01l0 -54.38z"/>
   <path class="fil0" d="M0 322.28l16 0 0 4.02 -5.59 0 0 14.64 -4.87 0 0 -14.64 -5.54 0 0 -4.02zm26.63 4.1c2.34,0 4.14,0.69 5.4,2.07 1.26,1.39 1.89,3.29 1.89,5.7 0,0.37 -0.01,0.66 -0.03,0.85l-10 0c0.23,0.82 0.63,1.44 1.19,1.88 0.57,0.43 1.26,0.65 2.08,0.65 0.62,0 1.22,-0.12 1.8,-0.37 0.57,-0.25 1.1,-0.61 1.58,-1.09l2.48 2.47c-0.75,0.84 -1.65,1.47 -2.71,1.91 -1.05,0.43 -2.25,0.65 -3.58,0.65 -1.54,0 -2.89,-0.3 -4.04,-0.91 -1.15,-0.6 -2.04,-1.45 -2.65,-2.55 -0.61,-1.1 -0.92,-2.38 -0.92,-3.84 0,-1.47 0.31,-2.77 0.93,-3.89 0.62,-1.13 1.5,-2 2.64,-2.61 1.13,-0.61 2.45,-0.92 3.94,-0.92zm2.69 6.09c0,-0.83 -0.25,-1.5 -0.74,-2.01 -0.48,-0.5 -1.13,-0.75 -1.93,-0.75 -0.74,0 -1.37,0.24 -1.87,0.74 -0.51,0.5 -0.84,1.17 -1,2.02l5.54 0zm20.34 -0.69c-0.67,-0.99 -1.61,-1.49 -2.82,-1.49 -0.85,0 -1.54,0.33 -2.07,0.97 -0.54,0.65 -0.8,1.49 -0.8,2.52 0,1.04 0.26,1.89 0.8,2.53 0.53,0.64 1.22,0.95 2.07,0.95 1.31,0 2.25,-0.54 2.82,-1.62l3.49 2c-0.57,1.1 -1.42,1.95 -2.56,2.55 -1.13,0.61 -2.46,0.91 -3.99,0.91 -1.47,0 -2.77,-0.3 -3.88,-0.91 -1.12,-0.6 -1.99,-1.45 -2.6,-2.55 -0.61,-1.1 -0.92,-2.38 -0.92,-3.84 0,-1.47 0.31,-2.77 0.93,-3.89 0.63,-1.13 1.5,-2 2.63,-2.61 1.12,-0.61 2.42,-0.92 3.9,-0.92 1.43,0 2.71,0.3 3.83,0.89 1.12,0.6 1.98,1.43 2.61,2.52l-3.44 1.99zm19.2 -5.43c1.58,0 2.85,0.5 3.8,1.49 0.95,1 1.42,2.34 1.42,4.02l0 9.08 -4.71 0 0 -7.72c0,-0.82 -0.22,-1.46 -0.66,-1.93 -0.45,-0.47 -1.04,-0.71 -1.79,-0.71 -0.78,0.02 -1.42,0.28 -1.93,0.78 -0.5,0.49 -0.8,1.15 -0.89,1.97l0 7.61 -4.74 0 0 -14.4 4.74 0 0 2.34c0.52,-0.83 1.18,-1.46 1.98,-1.89 0.81,-0.42 1.74,-0.64 2.78,-0.64zm19.15 0.03c1.56,0 2.94,0.31 4.13,0.92 1.19,0.61 2.11,1.47 2.77,2.58 0.65,1.11 0.98,2.39 0.98,3.84 0,1.48 -0.33,2.77 -0.98,3.88 -0.66,1.11 -1.58,1.97 -2.77,2.58 -1.19,0.61 -2.57,0.92 -4.13,0.92 -1.56,0 -2.93,-0.31 -4.12,-0.92 -1.19,-0.61 -2.11,-1.47 -2.76,-2.58 -0.64,-1.11 -0.97,-2.4 -0.97,-3.88 0,-1.45 0.33,-2.73 0.97,-3.84 0.65,-1.11 1.57,-1.97 2.76,-2.58 1.19,-0.61 2.56,-0.92 4.12,-0.92zm0 3.83c-0.92,0 -1.66,0.33 -2.23,0.99 -0.57,0.65 -0.85,1.51 -0.85,2.58 0,1.08 0.28,1.95 0.85,2.61 0.57,0.65 1.31,0.98 2.23,0.98 0.94,0 1.7,-0.33 2.27,-0.98 0.56,-0.66 0.85,-1.53 0.85,-2.61 0,-1.07 -0.29,-1.93 -0.87,-2.58 -0.57,-0.66 -1.32,-0.99 -2.25,-0.99zm14.47 -9.02l4.74 0 0 19.75 -4.74 0 0 -19.75zm19.2 5.19c1.56,0 2.94,0.31 4.13,0.92 1.18,0.61 2.11,1.47 2.76,2.58 0.66,1.11 0.99,2.39 0.99,3.84 0,1.48 -0.33,2.77 -0.99,3.88 -0.65,1.11 -1.58,1.97 -2.76,2.58 -1.19,0.61 -2.57,0.92 -4.13,0.92 -1.56,0 -2.94,-0.31 -4.13,-0.92 -1.18,-0.61 -2.1,-1.47 -2.75,-2.58 -0.65,-1.11 -0.97,-2.4 -0.97,-3.88 0,-1.45 0.32,-2.73 0.97,-3.84 0.65,-1.11 1.57,-1.97 2.75,-2.58 1.19,-0.61 2.57,-0.92 4.13,-0.92zm0 3.83c-0.92,0 -1.67,0.33 -2.24,0.99 -0.56,0.65 -0.85,1.51 -0.85,2.58 0,1.08 0.29,1.95 0.85,2.61 0.57,0.65 1.32,0.98 2.24,0.98 0.94,0 1.69,-0.33 2.26,-0.98 0.57,-0.66 0.85,-1.53 0.85,-2.61 0,-1.07 -0.28,-1.93 -0.86,-2.58 -0.58,-0.66 -1.33,-0.99 -2.25,-0.99zm28.12 -3.67l0 13.12c0,1.33 -0.33,2.5 -0.99,3.5 -0.65,1 -1.57,1.77 -2.75,2.32 -1.18,0.54 -2.54,0.81 -4.09,0.81 -1.2,0 -2.37,-0.17 -3.48,-0.51 -1.12,-0.34 -2.11,-0.79 -2.96,-1.36l1.65 -3.27c0.66,0.44 1.37,0.79 2.13,1.04 0.76,0.25 1.54,0.37 2.32,0.37 1.06,0 1.9,-0.25 2.53,-0.74 0.62,-0.5 0.93,-1.18 0.93,-2.03l0 -1.54c-0.96,1.26 -2.33,1.89 -4.1,1.89 -1.19,0 -2.25,-0.29 -3.18,-0.87 -0.93,-0.57 -1.66,-1.39 -2.18,-2.44 -0.53,-1.06 -0.79,-2.27 -0.79,-3.64 0,-1.35 0.25,-2.54 0.76,-3.56 0.5,-1.03 1.22,-1.83 2.14,-2.4 0.92,-0.57 1.97,-0.85 3.14,-0.85 0.89,0 1.69,0.16 2.41,0.49 0.72,0.33 1.32,0.8 1.8,1.43l0 -1.76 4.71 0zm-7.61 10.14c0.87,0 1.57,-0.31 2.1,-0.93 0.53,-0.62 0.8,-1.43 0.8,-2.42 0,-1.02 -0.27,-1.83 -0.8,-2.45 -0.53,-0.62 -1.23,-0.93 -2.1,-0.93 -0.87,0 -1.58,0.31 -2.12,0.94 -0.54,0.63 -0.81,1.44 -0.81,2.44 0,0.99 0.27,1.8 0.81,2.42 0.54,0.62 1.25,0.93 2.12,0.93zm15.1 -10.14l4.71 0 0 14.4 -4.71 0 0 -14.4zm2.32 -6.63c0.72,0 1.32,0.24 1.79,0.71 0.47,0.47 0.71,1.07 0.71,1.82 0,0.73 -0.24,1.33 -0.71,1.81 -0.47,0.48 -1.07,0.72 -1.79,0.72 -0.73,0 -1.33,-0.24 -1.8,-0.72 -0.47,-0.48 -0.71,-1.08 -0.71,-1.81 0,-0.75 0.24,-1.35 0.71,-1.82 0.47,-0.47 1.07,-0.71 1.8,-0.71zm16.54 6.44c1.98,0 3.53,0.46 4.63,1.37 1.1,0.92 1.66,2.2 1.67,3.85l0 9.37 -4.65 0 0 -1.63c-0.96,1.23 -2.41,1.84 -4.34,1.84 -1.53,0 -2.73,-0.41 -3.61,-1.24 -0.88,-0.82 -1.32,-1.91 -1.32,-3.26 0,-1.36 0.48,-2.43 1.43,-3.19 0.95,-0.76 2.31,-1.15 4.08,-1.17l3.76 0 0 -0.16c0,-0.69 -0.24,-1.23 -0.71,-1.6 -0.47,-0.37 -1.15,-0.56 -2.04,-0.56 -0.6,0 -1.28,0.1 -2.03,0.3 -0.76,0.19 -1.51,0.47 -2.28,0.85l-1.3 -3.2c1.17,-0.53 2.29,-0.92 3.37,-1.18 1.07,-0.26 2.18,-0.39 3.34,-0.39zm-1.23 11.58c0.71,0 1.33,-0.17 1.86,-0.52 0.54,-0.34 0.87,-0.79 1.02,-1.34l0 -1.25 -2.83 0c-1.33,0 -1.99,0.49 -1.99,1.49 0,0.49 0.17,0.89 0.52,1.18 0.34,0.29 0.82,0.44 1.42,0.44zm27 -11.55c2.34,0 4.14,0.69 5.4,2.07 1.26,1.39 1.89,3.29 1.89,5.7 0,0.37 0,0.66 -0.02,0.85l-10.01 0c0.23,0.82 0.63,1.44 1.2,1.88 0.57,0.43 1.26,0.65 2.07,0.65 0.63,0 1.22,-0.12 1.8,-0.37 0.58,-0.25 1.1,-0.61 1.58,-1.09l2.48 2.47c-0.75,0.84 -1.65,1.47 -2.7,1.91 -1.06,0.43 -2.25,0.65 -3.58,0.65 -1.55,0 -2.89,-0.3 -4.05,-0.91 -1.15,-0.6 -2.03,-1.45 -2.65,-2.55 -0.61,-1.1 -0.91,-2.38 -0.91,-3.84 0,-1.47 0.31,-2.77 0.93,-3.89 0.62,-1.13 1.5,-2 2.63,-2.61 1.14,-0.61 2.45,-0.92 3.94,-0.92zm2.69 6.09c0,-0.83 -0.24,-1.5 -0.73,-2.01 -0.49,-0.5 -1.13,-0.75 -1.93,-0.75 -0.75,0 -1.37,0.24 -1.88,0.74 -0.5,0.5 -0.84,1.17 -1,2.02l5.54 0zm29.32 -1.06l4.2 0 0 7.43c-0.99,0.72 -2.21,1.31 -3.66,1.76 -1.44,0.46 -2.82,0.68 -4.11,0.68 -1.88,0 -3.58,-0.42 -5.1,-1.26 -1.51,-0.84 -2.71,-2 -3.58,-3.47 -0.87,-1.48 -1.3,-3.13 -1.3,-4.95 0,-1.81 0.45,-3.45 1.34,-4.91 0.9,-1.47 2.13,-2.62 3.7,-3.45 1.57,-0.84 3.32,-1.25 5.26,-1.25 1.38,0 2.77,0.25 4.15,0.76 1.39,0.5 2.56,1.18 3.51,2.03l-2.76 3.41c-0.68,-0.64 -1.45,-1.15 -2.33,-1.52 -0.88,-0.37 -1.75,-0.56 -2.6,-0.56 -0.99,0 -1.89,0.24 -2.69,0.72 -0.79,0.48 -1.42,1.14 -1.89,1.97 -0.46,0.83 -0.69,1.77 -0.69,2.8 0,1.04 0.23,1.99 0.69,2.83 0.47,0.84 1.1,1.5 1.92,1.98 0.82,0.48 1.72,0.72 2.72,0.72 0.94,0 2.01,-0.3 3.22,-0.9l0 -4.82zm17.79 -5.03c2.34,0 4.14,0.69 5.4,2.07 1.26,1.39 1.89,3.29 1.89,5.7 0,0.37 -0.01,0.66 -0.03,0.85l-10 0c0.23,0.82 0.63,1.44 1.19,1.88 0.57,0.43 1.26,0.65 2.08,0.65 0.62,0 1.22,-0.12 1.8,-0.37 0.57,-0.25 1.1,-0.61 1.58,-1.09l2.47 2.47c-0.74,0.84 -1.64,1.47 -2.7,1.91 -1.05,0.43 -2.25,0.65 -3.58,0.65 -1.54,0 -2.89,-0.3 -4.04,-0.91 -1.15,-0.6 -2.04,-1.45 -2.65,-2.55 -0.61,-1.1 -0.92,-2.38 -0.92,-3.84 0,-1.47 0.31,-2.77 0.93,-3.89 0.62,-1.13 1.5,-2 2.64,-2.61 1.13,-0.61 2.45,-0.92 3.94,-0.92zm2.69 6.09c0,-0.83 -0.25,-1.5 -0.74,-2.01 -0.48,-0.5 -1.13,-0.75 -1.93,-0.75 -0.74,0 -1.37,0.24 -1.87,0.74 -0.51,0.5 -0.84,1.17 -1,2.02l5.54 0zm20.66 -1.38c-1.86,-0.98 -3.39,-1.46 -4.58,-1.46 -0.4,0 -0.73,0.07 -0.98,0.22 -0.25,0.15 -0.37,0.38 -0.37,0.68 0,0.32 0.19,0.58 0.58,0.77 0.39,0.2 1.01,0.41 1.87,0.64 1.02,0.3 1.88,0.6 2.56,0.89 0.69,0.3 1.28,0.74 1.77,1.33 0.5,0.6 0.75,1.37 0.75,2.33 0,1.46 -0.56,2.6 -1.69,3.42 -1.13,0.83 -2.6,1.24 -4.41,1.24 -1.22,0 -2.39,-0.17 -3.51,-0.52 -1.12,-0.34 -2.11,-0.85 -2.98,-1.53l1.49 -3.06c0.82,0.57 1.67,1.01 2.57,1.32 0.89,0.31 1.74,0.46 2.54,0.46 0.46,0 0.83,-0.07 1.1,-0.22 0.28,-0.15 0.42,-0.37 0.42,-0.65 0,-0.36 -0.2,-0.63 -0.6,-0.83 -0.4,-0.2 -1.03,-0.41 -1.88,-0.64 -1.01,-0.3 -1.84,-0.6 -2.5,-0.89 -0.66,-0.29 -1.23,-0.73 -1.72,-1.32 -0.48,-0.58 -0.73,-1.35 -0.73,-2.29 0,-1.45 0.55,-2.59 1.65,-3.42 1.1,-0.82 2.52,-1.23 4.26,-1.23 1.05,0 2.08,0.14 3.1,0.42 1.02,0.29 1.98,0.7 2.89,1.25l-1.6 3.09zm17.55 9.1c-0.53,0.3 -1.14,0.54 -1.83,0.71 -0.69,0.17 -1.4,0.25 -2.1,0.25 -1.42,0 -2.57,-0.41 -3.45,-1.22 -0.88,-0.82 -1.32,-1.95 -1.32,-3.38l0 -6.18 -2 0 0 -3.14 2 0 0 -3.99 4.71 0 0 3.99 3.73 0 0 3.14 -3.73 0 0 5.43c0,1.01 0.42,1.52 1.25,1.52 0.52,0 1.13,-0.16 1.84,-0.48l0.9 3.35zm12.79 -13.84c1.99,0 3.53,0.46 4.63,1.37 1.1,0.92 1.66,2.2 1.68,3.85l0 9.37 -4.66 0 0 -1.63c-0.96,1.23 -2.4,1.84 -4.34,1.84 -1.52,0 -2.72,-0.41 -3.6,-1.24 -0.88,-0.82 -1.32,-1.91 -1.32,-3.26 0,-1.36 0.47,-2.43 1.42,-3.19 0.95,-0.76 2.31,-1.15 4.09,-1.17l3.75 0 0 -0.16c0,-0.69 -0.23,-1.23 -0.7,-1.6 -0.47,-0.37 -1.15,-0.56 -2.04,-0.56 -0.6,0 -1.28,0.1 -2.04,0.3 -0.75,0.19 -1.51,0.47 -2.27,0.85l-1.31 -3.2c1.18,-0.53 2.3,-0.92 3.37,-1.18 1.08,-0.26 2.19,-0.39 3.34,-0.39zm-1.22 11.58c0.71,0 1.33,-0.17 1.86,-0.52 0.53,-0.34 0.87,-0.79 1.01,-1.34l0 -1.25 -2.82 0c-1.33,0 -2,0.49 -2,1.49 0,0.49 0.18,0.89 0.52,1.18 0.35,0.29 0.82,0.44 1.43,0.44zm5.8 -17.11c0,1.38 -0.2,2.43 -0.61,3.14 -0.41,0.71 -1.07,1.06 -1.97,1.06 -0.43,0 -0.82,-0.06 -1.17,-0.2 -0.36,-0.13 -0.77,-0.32 -1.25,-0.57 -0.5,-0.28 -0.87,-0.43 -1.12,-0.43 -0.5,0 -0.75,0.38 -0.75,1.12l-2.69 0c0,-1.38 0.21,-2.43 0.62,-3.15 0.41,-0.72 1.07,-1.08 1.99,-1.08 0.41,0 0.8,0.07 1.17,0.21 0.38,0.14 0.78,0.33 1.23,0.56 0.53,0.29 0.9,0.43 1.12,0.43 0.51,0 0.77,-0.37 0.77,-1.09l2.66 0zm15.64 5.56c1.56,0 2.93,0.31 4.12,0.92 1.19,0.61 2.11,1.47 2.77,2.58 0.66,1.11 0.98,2.39 0.98,3.84 0,1.48 -0.32,2.77 -0.98,3.88 -0.66,1.11 -1.58,1.97 -2.77,2.58 -1.19,0.61 -2.56,0.92 -4.12,0.92 -1.57,0 -2.94,-0.31 -4.13,-0.92 -1.19,-0.61 -2.11,-1.47 -2.75,-2.58 -0.65,-1.11 -0.98,-2.4 -0.98,-3.88 0,-1.45 0.33,-2.73 0.98,-3.84 0.64,-1.11 1.56,-1.97 2.75,-2.58 1.19,-0.61 2.56,-0.92 4.13,-0.92zm0 3.83c-0.93,0 -1.67,0.33 -2.24,0.99 -0.57,0.65 -0.85,1.51 -0.85,2.58 0,1.08 0.28,1.95 0.85,2.61 0.57,0.65 1.31,0.98 2.24,0.98 0.94,0 1.69,-0.33 2.26,-0.98 0.57,-0.66 0.85,-1.53 0.85,-2.61 0,-1.07 -0.29,-1.93 -0.87,-2.58 -0.57,-0.66 -1.32,-0.99 -2.24,-0.99z"/>
   <path class="fil1" d="M110.44 74.09c5.3,-1.02 8.78,-6.17 7.75,-11.47 -1.02,-5.31 -6.17,-8.78 -11.47,-7.76 -5.3,1.03 -8.78,6.18 -7.76,11.48 1.03,5.3 6.18,8.78 11.48,7.75zm-4.96 -25.64c4.33,-0.84 8.59,0.14 12.02,2.38 9.15,-8.48 20.42,-14.2 32.76,-16.59 10.28,-1.99 20.97,-1.54 30.98,1.3l-1.86 6.26c-9.11,-2.58 -18.49,-2.97 -27.87,-1.15 -11.05,2.14 -21.14,7.23 -29.35,14.77 1.17,1.75 2.02,3.76 2.45,5.96 1.71,8.83 -4.09,17.41 -12.93,19.12 -8.83,1.71 -17.41,-4.08 -19.12,-12.92 -1.71,-8.84 4.08,-17.42 12.92,-19.13z"/>
   <path class="fil1" d="M189.78 169.73c5.3,-1.03 8.78,-6.17 7.76,-11.47 -1.03,-5.31 -6.17,-8.79 -11.48,-7.76 -5.3,1.03 -8.78,6.17 -7.75,11.48 1.02,5.3 6.17,8.78 11.47,7.75zm-18.18 -9.87c0.12,-7.56 5.51,-14.28 13.22,-15.77 8.84,-1.71 17.42,4.09 19.13,12.92 1.71,8.84 -4.09,17.42 -12.93,19.13 -7.76,1.51 -15.33,-2.8 -18.21,-9.86 -34.96,5.2 -68.26,-17.88 -75.44,-52.73l6.41 -1.24c6.5,31.33 36.39,52.09 67.82,47.55z"/>
   <path class="fil1" d="M236.18 44.22c5.31,-1.03 8.79,-6.18 7.76,-11.48 -1.03,-5.3 -6.18,-8.78 -11.48,-7.76 -5.3,1.03 -8.78,6.18 -7.75,11.48 1.02,5.3 6.17,8.78 11.47,7.76zm-92.19 -42.39c28.59,-5.53 57.92,1.6 80.78,19.55 1.87,-1.35 4.04,-2.34 6.45,-2.81 8.84,-1.71 17.42,4.09 19.13,12.93 1.71,8.84 -4.09,17.42 -12.92,19.13 -8.84,1.71 -17.42,-4.09 -19.13,-12.93 -0.8,-4.11 0.05,-8.15 2.05,-11.49 -21.32,-16.56 -48.56,-23.11 -75.12,-17.97 -50.6,9.8 -83.81,58.94 -74.02,109.54 9.8,50.61 58.94,83.81 109.54,74.02 22.72,-4.4 42.86,-16.95 56.79,-35.37l5.24 3.89c-14.9,19.74 -36.46,33.18 -60.79,37.89 -54.14,10.48 -106.71,-25.05 -117.18,-79.19 -10.48,-54.14 25.04,-106.71 79.18,-117.19z"/>
   <path class="fil0" d="M3.42 205.51c3.14,0 5.94,0.34 8.39,1.01 2.46,0.68 4.79,1.61 7,2.8l0 58.73c0,2.97 0.44,5.75 1.33,8.33 0.89,2.59 2.1,4.85 3.62,6.8 1.53,1.95 3.33,3.48 5.41,4.58 2.07,1.1 4.26,1.65 6.54,1.65 1.95,0.09 4.18,-0.25 6.68,-1.02 2.5,-0.76 5.15,-2.5 7.94,-5.21l0.13 0.13c1.19,1.61 2.2,3.22 3.05,4.83 0.85,1.61 1.57,3.26 2.16,4.96 -2.79,2.2 -5.87,3.9 -9.21,5.08 -3.35,1.19 -6.93,1.78 -10.75,1.78 -4.49,0 -8.68,-0.84 -12.58,-2.54 -3.9,-1.69 -7.31,-4 -10.24,-6.93 -2.92,-2.92 -5.23,-6.33 -6.92,-10.23 -1.7,-3.9 -2.55,-8.1 -2.55,-12.59l0 -62.16zm67.25 23.9c-2.45,0 -4.51,-0.85 -6.16,-2.55 -1.65,-1.69 -2.48,-3.77 -2.48,-6.23 0,-2.45 0.83,-4.51 2.48,-6.16 1.65,-1.65 3.71,-2.48 6.16,-2.48 2.46,0 4.54,0.83 6.23,2.48 1.7,1.65 2.55,3.71 2.55,6.16 0,2.46 -0.85,4.54 -2.55,6.23 -1.69,1.7 -3.77,2.55 -6.23,2.55zm-7.75 12.84c2.2,-1.19 4.55,-2.14 7.05,-2.86 2.51,-0.72 5.32,-1.08 8.46,-1.08l0 56.06c-3.65,1.95 -7.8,3.18 -12.46,3.69l-3.05 0 0 -55.81zm90.13 25.8c0,4.5 -0.84,8.69 -2.54,12.59 -1.69,3.9 -4,7.31 -6.93,10.23 -2.92,2.93 -6.35,5.24 -10.3,6.93 -3.94,1.7 -8.15,2.54 -12.64,2.54 -4.5,0 -8.69,-0.84 -12.59,-2.54 -3.9,-1.69 -7.31,-4 -10.23,-6.93 -2.93,-2.92 -5.24,-6.33 -6.93,-10.23 -1.7,-3.9 -2.55,-8.09 -2.55,-12.59 0,-4.49 0.85,-8.68 2.55,-12.58 1.69,-3.9 4,-7.31 6.93,-10.24 2.92,-2.92 6.33,-5.23 10.23,-6.92 3.9,-1.7 8.09,-2.55 12.59,-2.55 4.83,0 9.32,0.98 13.47,2.93l0 16.27c-1.52,-2.63 -3.45,-4.73 -5.78,-6.29 -2.33,-1.57 -4.9,-2.36 -7.69,-2.36 -2.29,0 -4.45,0.58 -6.49,1.72 -2.03,1.15 -3.81,2.69 -5.34,4.64 -1.52,1.95 -2.73,4.24 -3.62,6.87 -0.89,2.62 -1.34,5.46 -1.34,8.51 0,2.97 0.45,5.79 1.34,8.46 0.89,2.67 2.1,4.98 3.62,6.93 1.53,1.95 3.31,3.49 5.34,4.64 2.04,1.14 4.2,1.71 6.49,1.71 2.28,0 4.45,-0.57 6.48,-1.71 2.03,-1.15 3.81,-2.69 5.34,-4.64 1.52,-1.95 2.75,-4.22 3.69,-6.8 0.93,-2.59 1.39,-5.37 1.39,-8.33l0 -58.48c2.21,-1.19 4.56,-2.12 7.06,-2.8 2.5,-0.68 5.32,-1.02 8.45,-1.02l0 62.04zm39.41 -32.41c3.65,0 7.12,0.65 10.43,1.97 3.3,1.31 6.16,3.07 8.58,5.27 2.41,2.21 4.32,4.75 5.72,7.63 1.4,2.88 2.01,5.89 1.84,9.03 -0.17,3.73 -1.39,6.88 -3.68,9.47 -2.29,2.58 -5.24,4.57 -8.84,5.97 -3.6,1.4 -7.71,2.25 -12.33,2.54 -4.62,0.3 -9.34,-0.02 -14.18,-0.95 -1.18,-3.05 -1.77,-6.19 -1.77,-9.41l0 -1.52c6.35,1.27 11.33,1.65 14.93,1.14 3.6,-0.51 6.3,-1.4 8.08,-2.67 1.77,-1.27 2.88,-2.6 3.3,-4 0.42,-1.4 0.64,-2.35 0.64,-2.86 0,-0.43 -0.11,-1.21 -0.32,-2.35 -0.21,-1.15 -0.76,-2.31 -1.65,-3.5 -0.89,-1.19 -2.21,-2.22 -3.95,-3.11 -1.73,-0.89 -4.17,-1.34 -7.31,-1.34 -2.45,0 -4.68,0.53 -6.67,1.59 -1.99,1.06 -3.71,2.54 -5.15,4.45 -1.44,1.91 -2.56,4.19 -3.37,6.86 -0.8,2.67 -1.2,5.58 -1.2,8.71 0,2.97 0.44,5.72 1.33,8.27 0.89,2.54 2.1,4.76 3.62,6.67 1.53,1.91 3.31,3.41 5.34,4.51 2.04,1.1 4.24,1.66 6.61,1.66 2.04,0.17 3.94,-0.03 5.72,-0.58 1.78,-0.55 3.35,-1.25 4.71,-2.09 1.52,-0.94 2.96,-2.04 4.32,-3.31l7.5 7.63c-2.88,2.8 -6.23,5 -10.04,6.61 -3.82,1.61 -7.88,2.41 -12.21,2.41 -4.49,0 -8.71,-0.84 -12.65,-2.54 -3.94,-1.69 -7.37,-4 -10.29,-6.93 -2.93,-2.92 -5.24,-6.33 -6.93,-10.23 -1.7,-3.9 -2.54,-8.09 -2.54,-12.59 0,-4.49 0.84,-8.7 2.54,-12.65 1.69,-3.94 4,-7.37 6.93,-10.29 2.92,-2.93 6.35,-5.24 10.29,-6.93 3.94,-1.7 8.16,-2.54 12.65,-2.54zm65.22 1.78c1.95,0 3.84,0.17 5.66,0.5 1.82,0.34 3.58,0.85 5.27,1.53l-4.32 9.66c-2.2,-0.85 -4.41,-1.18 -6.61,-1.02 -2.29,0 -4.45,0.58 -6.48,1.72 -2.04,1.14 -3.82,2.69 -5.34,4.64 -1.53,1.95 -2.74,4.24 -3.63,6.87 -0.89,2.62 -1.33,5.42 -1.33,8.39l0 24.53c-2.2,1.19 -4.56,2.12 -7.06,2.8 -2.5,0.68 -5.31,1.02 -8.45,1.02l0 -28.35c0,-4.41 0.85,-8.58 2.54,-12.53 1.7,-3.94 4.01,-7.37 6.93,-10.29 2.92,-2.93 6.34,-5.24 10.23,-6.93 3.9,-1.7 8.1,-2.54 12.59,-2.54zm43.22 -1.66c4.5,0 8.69,0.85 12.59,2.55 3.9,1.69 7.31,4 10.23,6.92 2.93,2.93 5.24,6.34 6.93,10.24 1.7,3.9 2.55,8.09 2.55,12.58l0 30.26c-3.06,0 -5.83,-0.34 -8.33,-1.02 -2.5,-0.67 -4.85,-1.61 -7.06,-2.79l0 -26.45c0,-1.52 -0.1,-2.98 -0.32,-4.38 -0.21,-1.4 -0.53,-2.78 -0.95,-4.13 -1.35,-3.9 -3.41,-7.08 -6.16,-9.54 -2.76,-2.46 -5.92,-3.69 -9.48,-3.69 -2.28,0 -4.47,0.58 -6.54,1.72 -2.08,1.15 -3.88,2.69 -5.41,4.64 -1.52,1.95 -2.73,4.24 -3.62,6.87 -0.89,2.62 -1.33,5.46 -1.33,8.51 0,2.97 0.44,5.77 1.33,8.39 0.89,2.63 2.1,4.92 3.62,6.87 1.53,1.95 3.33,3.5 5.41,4.64 2.07,1.14 4.26,1.72 6.54,1.72 2.72,0 5.24,-0.77 7.57,-2.29 2.33,-1.53 4.3,-3.65 5.91,-6.36l0 16.4c-2.03,0.93 -4.17,1.65 -6.42,2.16 -2.25,0.51 -4.6,0.76 -7.06,0.76 -4.49,0 -8.68,-0.84 -12.58,-2.54 -3.9,-1.69 -7.31,-4 -10.24,-6.93 -2.92,-2.92 -5.23,-6.33 -6.92,-10.23 -1.7,-3.9 -2.55,-8.09 -2.55,-12.59 0,-4.49 0.85,-8.68 2.55,-12.58 1.69,-3.9 4,-7.31 6.92,-10.24 2.93,-2.92 6.34,-5.23 10.24,-6.92 3.9,-1.7 8.09,-2.55 12.58,-2.55z"/>
  </g>
 </g>
</svg>
