<?xml version="1.0" encoding="UTF-8"?>
<!DOCTYPE svg PUBLIC "-//W3C//DTD SVG 1.1//EN" "http://www.w3.org/Graphics/SVG/1.1/DTD/svg11.dtd">
<!-- Creator: CorelDRAW (Versão de avaliação) -->
<svg xmlns="http://www.w3.org/2000/svg" xml:space="preserve" width="2044px" height="2044px" version="1.1" style="shape-rendering:geometricPrecision; text-rendering:geometricPrecision; image-rendering:optimizeQuality; fill-rule:evenodd; clip-rule:evenodd"
viewBox="0 0 2042.32 2042.32"
 xmlns:xlink="http://www.w3.org/1999/xlink"
 xmlns:xodm="http://www.corel.com/coreldraw/odm/2003">
 <defs>
  <style type="text/css">
   <![CDATA[
    .fil2 {fill:white}
    .fil0 {fill:#373535}
    .fil1 {fill:white;fill-rule:nonzero}
   ]]>
  </style>
 </defs>
 <g id="Camada_x0020_1">
  <metadata id="CorelCorpID_0Corel-Layer"/>
  <circle class="fil0" cx="1021.16" cy="1021.16" r="1021.16"/>
  <g id="_340940728">
   <path class="fil1" d="M963.11 612.53c20.78,0 39.32,2.25 55.62,6.74 16.29,4.5 31.74,10.68 46.35,18.55l0 389.34c0,19.67 2.95,38.07 8.85,55.2 5.89,17.14 13.9,32.17 24.01,45.09 10.12,12.92 22.06,23.03 35.82,30.34 13.77,7.3 28.23,10.95 43.4,10.95 12.93,0.57 27.67,-1.68 44.25,-6.74 16.57,-5.06 34.13,-16.57 52.67,-34.55l0.84 0.84c7.87,10.68 14.61,21.35 20.23,32.03 5.62,10.67 10.39,21.63 14.33,32.86 -18.55,14.61 -38.91,25.85 -61.11,33.71 -22.19,7.87 -45.92,11.8 -71.21,11.8 -29.77,0 -57.59,-5.62 -83.43,-16.85 -25.84,-11.24 -48.46,-26.55 -67.84,-45.93 -19.38,-19.39 -34.69,-42 -45.93,-67.84 -11.24,-25.85 -16.85,-53.66 -16.85,-83.44l0 -412.1z"/>
   <path class="fil2" d="M613.09 824.66c40.2,-7.79 66.56,-46.8 58.77,-86.98 -7.77,-40.19 -46.78,-66.55 -86.96,-58.79 -40.2,7.79 -66.55,46.81 -58.79,86.98 7.79,40.2 46.81,66.56 86.98,58.79zm-37.6 -194.33c32.83,-6.35 65.14,1.02 91.13,18.03 69.34,-64.28 154.74,-107.63 248.28,-125.74 77.89,-15.07 158.92,-11.66 234.77,9.86l-14.1 47.43c-69.06,-19.55 -140.11,-22.47 -211.26,-8.7 -83.68,16.18 -160.16,54.76 -222.43,111.9 8.9,13.29 15.35,28.52 18.57,45.16 12.96,66.98 -30.97,132 -97.95,144.96 -66.97,12.96 -132,-30.97 -144.95,-97.94 -12.96,-66.98 30.97,-132 97.94,-144.96z"/>
   <path class="fil2" d="M1214.42 1549.48c40.17,-7.79 66.53,-46.8 58.76,-86.98 -7.76,-40.2 -46.78,-66.55 -86.98,-58.77 -40.17,7.77 -66.53,46.79 -58.76,86.96 7.76,40.2 46.78,66.56 86.98,58.79zm-137.8 -74.81c0.88,-57.28 41.75,-108.21 100.19,-119.53 66.98,-12.96 132,30.98 144.96,97.95 12.96,66.97 -30.99,132 -97.96,144.96 -58.86,11.4 -116.19,-21.19 -138.03,-74.74 -264.93,39.39 -517.31,-135.48 -571.72,-399.62l48.59 -9.39c49.24,237.44 275.75,394.78 513.97,360.37z"/>
   <path class="fil2" d="M1566.07 598.22c40.2,-7.77 66.55,-46.78 58.79,-86.98 -7.79,-40.18 -46.81,-66.53 -86.98,-58.77 -40.18,7.79 -66.56,46.81 -58.77,86.98 7.77,40.18 46.78,66.56 86.96,58.77zm-698.69 -321.21c216.66,-41.92 438.91,12.1 612.22,148.18 14.14,-10.25 30.62,-17.76 48.87,-21.31 66.97,-12.96 132,31 144.96,97.97 12.95,66.97 -30.98,132 -97.95,144.96 -66.97,12.96 -132,-30.99 -144.96,-97.95 -6.03,-31.15 0.37,-61.8 15.56,-87.07 -161.58,-125.51 -368.02,-175.14 -569.31,-136.19 -383.53,74.2 -635.17,446.63 -560.97,830.15 74.23,383.55 446.63,635.2 830.18,560.97 172.18,-33.31 324.79,-128.43 430.36,-268.08l39.73 29.51c-112.96,149.6 -276.33,251.48 -460.7,287.16 -410.32,79.4 -808.74,-189.82 -888.14,-600.15 -79.42,-410.32 189.82,-808.75 600.15,-888.15z"/>
  </g>
 </g>
</svg>
