<?xml version="1.0" encoding="UTF-8"?>
<!DOCTYPE svg PUBLIC "-//W3C//DTD SVG 1.1//EN" "http://www.w3.org/Graphics/SVG/1.1/DTD/svg11.dtd">
<!-- Creator: CorelDRAW (Versão de avaliação) -->
<svg xmlns="http://www.w3.org/2000/svg" xml:space="preserve" width="878px" height="912px" version="1.1" style="shape-rendering:geometricPrecision; text-rendering:geometricPrecision; image-rendering:optimizeQuality; fill-rule:evenodd; clip-rule:evenodd"
viewBox="0 0 344.26 357.46"
 xmlns:xlink="http://www.w3.org/1999/xlink"
 xmlns:xodm="http://www.corel.com/coreldraw/odm/2003">
 <defs>
  <style type="text/css">
   <![CDATA[
    .fil0 {fill:white;fill-rule:nonzero}
    .fil1 {fill:url(#id0)}
    .fil2 {fill:url(#id1)}
    .fil3 {fill:url(#id2)}
   ]]>
  </style>
  <linearGradient id="id0" gradientUnits="userSpaceOnUse" x1="141.16" y1="37.05" x2="141.16" y2="80.45">
   <stop offset="0" style="stop-opacity:1; stop-color:#F1653F"/>
   <stop offset="0.478431" style="stop-opacity:1; stop-color:#E74E3B"/>
   <stop offset="0.980392" style="stop-opacity:1; stop-color:#DD3539"/>
   <stop offset="1" style="stop-opacity:1; stop-color:#DD3539"/>
  </linearGradient>
  <linearGradient id="id1" gradientUnits="userSpaceOnUse" xlink:href="#id0" x1="155.68" y1="119.91" x2="155.68" y2="178.16">
  </linearGradient>
  <linearGradient id="id2" gradientUnits="userSpaceOnUse" x1="106.22" y1="202.41" x2="187.5" y2="6.92">
   <stop offset="0" style="stop-opacity:1; stop-color:#1078F5"/>
   <stop offset="1" style="stop-opacity:1; stop-color:#06F2F0"/>
  </linearGradient>
 </defs>
 <g id="Camada_x0020_1">
  <metadata id="CorelCorpID_0Corel-Layer"/>
  <g id="_340380504">
   <path class="fil0" d="M161.68 47.59c2.83,0 5.35,0.31 7.57,0.92 2.22,0.61 4.33,1.45 6.32,2.53l0 53.03c0,2.67 0.4,5.18 1.2,7.51 0.8,2.34 1.89,4.39 3.27,6.15 1.38,1.76 3.01,3.13 4.88,4.13 1.88,0.99 3.85,1.49 5.91,1.49 1.76,0.08 3.77,-0.23 6.03,-0.92 2.26,-0.69 4.65,-2.26 7.17,-4.7l0.12 0.11c1.07,1.45 1.99,2.91 2.75,4.36 0.77,1.46 1.42,2.95 1.95,4.48 -2.52,1.99 -5.3,3.52 -8.32,4.59 -3.02,1.07 -6.25,1.61 -9.7,1.61 -4.05,0 -7.84,-0.77 -11.36,-2.3 -3.52,-1.53 -6.6,-3.61 -9.24,-6.25 -2.64,-2.65 -4.73,-5.72 -6.26,-9.24 -1.53,-3.52 -2.29,-7.31 -2.29,-11.37l0 -56.13z"/>
   <path class="fil0" d="M0 332.68l16.51 0 0 4.15 -5.77 0 0 15.11 -5.03 0 0 -15.11 -5.71 0 0 -4.15zm27.49 4.23c2.41,0 4.27,0.71 5.57,2.14 1.3,1.43 1.95,3.39 1.95,5.88 0,0.38 0,0.68 -0.02,0.88l-10.33 0c0.23,0.84 0.65,1.49 1.23,1.94 0.59,0.44 1.3,0.67 2.15,0.67 0.64,0 1.26,-0.13 1.85,-0.39 0.6,-0.25 1.14,-0.63 1.64,-1.12l2.55 2.55c-0.77,0.86 -1.7,1.52 -2.79,1.97 -1.09,0.45 -2.32,0.67 -3.69,0.67 -1.6,0 -2.99,-0.31 -4.18,-0.93 -1.19,-0.63 -2.1,-1.51 -2.73,-2.64 -0.64,-1.14 -0.95,-2.46 -0.95,-3.96 0,-1.52 0.32,-2.86 0.96,-4.02 0.64,-1.16 1.55,-2.06 2.72,-2.69 1.17,-0.64 2.53,-0.95 4.07,-0.95zm2.77 6.29c0,-0.86 -0.25,-1.55 -0.75,-2.08 -0.51,-0.52 -1.17,-0.78 -2,-0.78 -0.77,0 -1.41,0.26 -1.93,0.77 -0.52,0.51 -0.87,1.21 -1.03,2.09l5.71 0zm21 -0.72c-0.69,-1.02 -1.66,-1.53 -2.91,-1.53 -0.88,0 -1.59,0.33 -2.14,1 -0.55,0.67 -0.82,1.53 -0.82,2.6 0,1.08 0.27,1.95 0.82,2.6 0.55,0.66 1.26,0.99 2.14,0.99 1.36,0 2.33,-0.55 2.91,-1.67l3.6 2.06c-0.58,1.13 -1.46,2.01 -2.63,2.64 -1.18,0.62 -2.55,0.93 -4.12,0.93 -1.53,0 -2.86,-0.31 -4.02,-0.93 -1.15,-0.63 -2.04,-1.51 -2.67,-2.64 -0.64,-1.14 -0.95,-2.46 -0.95,-3.96 0,-1.52 0.32,-2.86 0.96,-4.02 0.64,-1.16 1.54,-2.06 2.71,-2.69 1.16,-0.64 2.5,-0.95 4.02,-0.95 1.48,0 2.8,0.3 3.96,0.92 1.15,0.61 2.05,1.48 2.69,2.59l-3.55 2.06zm19.83 -5.6c1.63,0 2.93,0.51 3.91,1.54 0.98,1.02 1.47,2.41 1.47,4.15l0 9.37 -4.86 0 0 -7.97c0,-0.84 -0.23,-1.51 -0.69,-1.99 -0.46,-0.49 -1.07,-0.73 -1.84,-0.73 -0.81,0.02 -1.47,0.28 -1.99,0.8 -0.52,0.51 -0.83,1.19 -0.92,2.03l0 7.86 -4.89 0 0 -14.87 4.89 0 0 2.42c0.53,-0.86 1.21,-1.51 2.04,-1.95 0.84,-0.44 1.8,-0.66 2.88,-0.66zm19.76 0.03c1.61,0 3.03,0.31 4.26,0.95 1.23,0.63 2.18,1.52 2.86,2.66 0.68,1.14 1.01,2.47 1.01,3.97 0,1.52 -0.33,2.85 -1.01,4 -0.68,1.14 -1.63,2.03 -2.86,2.66 -1.23,0.63 -2.65,0.95 -4.26,0.95 -1.61,0 -3.03,-0.32 -4.26,-0.95 -1.22,-0.63 -2.17,-1.52 -2.84,-2.66 -0.67,-1.15 -1,-2.48 -1,-4 0,-1.5 0.33,-2.83 1,-3.97 0.67,-1.14 1.62,-2.03 2.84,-2.66 1.23,-0.64 2.65,-0.95 4.26,-0.95zm0 3.95c-0.95,0 -1.72,0.34 -2.3,1.02 -0.59,0.68 -0.88,1.57 -0.88,2.67 0,1.11 0.29,2.01 0.88,2.69 0.58,0.68 1.35,1.01 2.3,1.01 0.97,0 1.75,-0.33 2.34,-1.01 0.58,-0.68 0.88,-1.58 0.88,-2.69 0,-1.1 -0.3,-1.99 -0.9,-2.67 -0.59,-0.68 -1.36,-1.02 -2.32,-1.02zm14.93 -9.31l4.89 0 0 20.39 -4.89 0 0 -20.39zm19.83 5.36c1.61,0 3.03,0.31 4.25,0.95 1.23,0.63 2.18,1.52 2.86,2.66 0.68,1.14 1.02,2.47 1.02,3.97 0,1.52 -0.34,2.85 -1.02,4 -0.68,1.14 -1.63,2.03 -2.86,2.66 -1.22,0.63 -2.64,0.95 -4.25,0.95 -1.62,0 -3.04,-0.32 -4.26,-0.95 -1.23,-0.63 -2.18,-1.52 -2.85,-2.66 -0.67,-1.15 -1,-2.48 -1,-4 0,-1.5 0.33,-2.83 1,-3.97 0.67,-1.14 1.62,-2.03 2.85,-2.66 1.22,-0.64 2.64,-0.95 4.26,-0.95zm0 3.95c-0.96,0 -1.73,0.34 -2.31,1.02 -0.59,0.68 -0.88,1.57 -0.88,2.67 0,1.11 0.29,2.01 0.88,2.69 0.58,0.68 1.35,1.01 2.31,1.01 0.97,0 1.74,-0.33 2.33,-1.01 0.59,-0.68 0.88,-1.58 0.88,-2.69 0,-1.1 -0.3,-1.99 -0.89,-2.67 -0.6,-0.68 -1.37,-1.02 -2.32,-1.02zm29.02 -3.79l0 13.55c0,1.37 -0.34,2.57 -1.02,3.61 -0.67,1.03 -1.62,1.83 -2.84,2.39 -1.22,0.56 -2.62,0.84 -4.22,0.84 -1.24,0 -2.44,-0.18 -3.6,-0.52 -1.15,-0.35 -2.17,-0.82 -3.05,-1.4l1.71 -3.38c0.68,0.45 1.41,0.81 2.2,1.07 0.78,0.25 1.58,0.38 2.39,0.38 1.09,0 1.96,-0.25 2.61,-0.77 0.64,-0.51 0.96,-1.21 0.96,-2.09l0 -1.59c-0.99,1.3 -2.4,1.95 -4.23,1.95 -1.23,0 -2.33,-0.3 -3.29,-0.89 -0.96,-0.6 -1.71,-1.44 -2.25,-2.53 -0.54,-1.09 -0.81,-2.34 -0.81,-3.75 0,-1.39 0.26,-2.62 0.78,-3.68 0.52,-1.06 1.26,-1.89 2.21,-2.47 0.96,-0.59 2.04,-0.88 3.25,-0.88 0.91,0 1.74,0.17 2.48,0.51 0.75,0.33 1.36,0.82 1.86,1.47l0 -1.82 4.86 0zm-7.86 10.47c0.9,0 1.62,-0.32 2.17,-0.96 0.55,-0.64 0.83,-1.48 0.83,-2.5 0,-1.05 -0.28,-1.89 -0.83,-2.53 -0.55,-0.64 -1.27,-0.96 -2.17,-0.96 -0.89,0 -1.62,0.32 -2.18,0.97 -0.56,0.65 -0.84,1.49 -0.84,2.52 0,1.02 0.28,1.86 0.84,2.5 0.56,0.64 1.29,0.96 2.18,0.96zm15.59 -10.47l4.87 0 0 14.87 -4.87 0 0 -14.87zm2.39 -6.84c0.75,0 1.37,0.24 1.86,0.73 0.48,0.48 0.73,1.11 0.73,1.88 0,0.75 -0.25,1.37 -0.73,1.87 -0.49,0.49 -1.11,0.74 -1.86,0.74 -0.75,0 -1.37,-0.25 -1.85,-0.74 -0.49,-0.5 -0.73,-1.12 -0.73,-1.87 0,-0.77 0.24,-1.4 0.73,-1.88 0.48,-0.49 1.1,-0.73 1.85,-0.73zm17.08 6.65c2.05,0 3.64,0.47 4.78,1.42 1.13,0.94 1.71,2.26 1.73,3.96l0 9.68 -4.81 0 0 -1.68c-0.99,1.26 -2.48,1.9 -4.48,1.9 -1.57,0 -2.81,-0.43 -3.72,-1.28 -0.91,-0.85 -1.36,-1.98 -1.36,-3.37 0,-1.41 0.49,-2.51 1.47,-3.29 0.98,-0.79 2.39,-1.19 4.22,-1.21l3.87 0 0 -0.17c0,-0.71 -0.24,-1.26 -0.73,-1.65 -0.48,-0.38 -1.18,-0.57 -2.1,-0.57 -0.62,0 -1.32,0.1 -2.1,0.3 -0.78,0.2 -1.56,0.49 -2.35,0.88l-1.35 -3.3c1.21,-0.55 2.37,-0.96 3.48,-1.22 1.11,-0.27 2.26,-0.4 3.45,-0.4zm-1.27 11.95c0.74,0 1.38,-0.18 1.93,-0.53 0.55,-0.36 0.89,-0.82 1.04,-1.39l0 -1.29 -2.91 0c-1.38,0 -2.06,0.51 -2.06,1.53 0,0.52 0.18,0.93 0.53,1.23 0.36,0.3 0.85,0.45 1.47,0.45zm27.88 -11.92c2.41,0 4.27,0.71 5.57,2.14 1.3,1.43 1.95,3.39 1.95,5.88 0,0.38 -0.01,0.68 -0.02,0.88l-10.33 0c0.23,0.84 0.65,1.49 1.23,1.94 0.59,0.44 1.3,0.67 2.14,0.67 0.65,0 1.26,-0.13 1.86,-0.39 0.59,-0.25 1.14,-0.63 1.63,-1.12l2.56 2.55c-0.77,0.86 -1.7,1.52 -2.79,1.97 -1.09,0.45 -2.32,0.67 -3.69,0.67 -1.6,0 -2.99,-0.31 -4.18,-0.93 -1.19,-0.63 -2.1,-1.51 -2.73,-2.64 -0.64,-1.14 -0.95,-2.46 -0.95,-3.96 0,-1.52 0.32,-2.86 0.96,-4.02 0.64,-1.16 1.55,-2.06 2.72,-2.69 1.17,-0.64 2.53,-0.95 4.07,-0.95zm2.77 6.29c0,-0.86 -0.25,-1.55 -0.76,-2.08 -0.5,-0.52 -1.16,-0.78 -1.99,-0.78 -0.77,0 -1.41,0.26 -1.93,0.77 -0.53,0.51 -0.87,1.21 -1.03,2.09l5.71 0zm30.26 -1.1l4.34 0 0 7.67c-1.02,0.75 -2.28,1.36 -3.77,1.82 -1.5,0.47 -2.91,0.7 -4.25,0.7 -1.94,0 -3.69,-0.43 -5.26,-1.3 -1.57,-0.87 -2.8,-2.07 -3.7,-3.59 -0.89,-1.52 -1.34,-3.22 -1.34,-5.11 0,-1.87 0.46,-3.56 1.39,-5.07 0.92,-1.51 2.19,-2.69 3.81,-3.55 1.63,-0.87 3.43,-1.3 5.43,-1.3 1.43,0 2.86,0.27 4.29,0.79 1.43,0.52 2.63,1.22 3.62,2.1l-2.85 3.52c-0.7,-0.66 -1.5,-1.19 -2.41,-1.57 -0.91,-0.38 -1.8,-0.58 -2.68,-0.58 -1.02,0 -1.95,0.25 -2.77,0.74 -0.83,0.5 -1.48,1.18 -1.95,2.04 -0.48,0.86 -0.72,1.82 -0.72,2.88 0,1.08 0.24,2.06 0.72,2.93 0.47,0.87 1.13,1.55 1.98,2.05 0.84,0.49 1.77,0.74 2.8,0.74 0.97,0 2.08,-0.31 3.32,-0.94l0 -4.97zm18.37 -5.19c2.42,0 4.27,0.71 5.57,2.14 1.31,1.43 1.96,3.39 1.96,5.88 0,0.38 -0.01,0.68 -0.03,0.88l-10.33 0c0.24,0.84 0.65,1.49 1.23,1.94 0.59,0.44 1.3,0.67 2.15,0.67 0.64,0 1.26,-0.13 1.85,-0.39 0.6,-0.25 1.14,-0.63 1.64,-1.12l2.55 2.55c-0.77,0.86 -1.7,1.52 -2.79,1.97 -1.09,0.45 -2.32,0.67 -3.69,0.67 -1.6,0 -2.99,-0.31 -4.18,-0.93 -1.19,-0.63 -2.1,-1.51 -2.73,-2.64 -0.63,-1.14 -0.95,-2.46 -0.95,-3.96 0,-1.52 0.32,-2.86 0.96,-4.02 0.64,-1.16 1.55,-2.06 2.72,-2.69 1.17,-0.64 2.53,-0.95 4.07,-0.95zm2.77 6.29c0,-0.86 -0.25,-1.55 -0.75,-2.08 -0.51,-0.52 -1.17,-0.78 -1.99,-0.78 -0.77,0 -1.42,0.26 -1.94,0.77 -0.52,0.51 -0.87,1.21 -1.03,2.09l5.71 0zm21.34 -1.43c-1.93,-1.01 -3.5,-1.51 -4.73,-1.51 -0.42,0 -0.76,0.08 -1.02,0.23 -0.25,0.16 -0.38,0.39 -0.38,0.7 0,0.33 0.2,0.6 0.6,0.8 0.41,0.2 1.05,0.42 1.93,0.66 1.06,0.31 1.94,0.62 2.65,0.92 0.7,0.3 1.31,0.76 1.82,1.37 0.52,0.62 0.77,1.42 0.77,2.41 0,1.5 -0.58,2.68 -1.74,3.53 -1.16,0.85 -2.68,1.28 -4.55,1.28 -1.26,0 -2.47,-0.18 -3.62,-0.54 -1.16,-0.36 -2.18,-0.88 -3.08,-1.58l1.54 -3.16c0.84,0.59 1.72,1.04 2.65,1.36 0.92,0.32 1.8,0.48 2.62,0.48 0.48,0 0.86,-0.08 1.14,-0.23 0.29,-0.16 0.43,-0.38 0.43,-0.68 0,-0.36 -0.21,-0.65 -0.62,-0.85 -0.41,-0.2 -1.06,-0.42 -1.94,-0.66 -1.04,-0.31 -1.9,-0.61 -2.58,-0.92 -0.68,-0.3 -1.27,-0.75 -1.77,-1.36 -0.51,-0.6 -0.76,-1.39 -0.76,-2.36 0,-1.5 0.57,-2.68 1.71,-3.53 1.13,-0.85 2.6,-1.28 4.39,-1.28 1.08,0 2.15,0.15 3.2,0.44 1.06,0.3 2.05,0.73 2.98,1.29l-1.64 3.19zm18.11 9.4c-0.55,0.31 -1.18,0.55 -1.89,0.72 -0.72,0.18 -1.44,0.27 -2.17,0.27 -1.47,0 -2.65,-0.43 -3.56,-1.27 -0.91,-0.84 -1.36,-2 -1.36,-3.49l0 -6.37 -2.06 0 0 -3.24 2.06 0 0 -4.12 4.86 0 0 4.12 3.85 0 0 3.24 -3.85 0 0 5.6c0,1.05 0.43,1.57 1.29,1.57 0.54,0 1.17,-0.17 1.9,-0.5l0.93 3.47zm13.2 -14.29c2.06,0 3.65,0.47 4.78,1.42 1.14,0.94 1.72,2.26 1.74,3.96l0 9.68 -4.81 0 0 -1.68c-0.99,1.26 -2.48,1.9 -4.48,1.9 -1.58,0 -2.82,-0.43 -3.72,-1.28 -0.91,-0.85 -1.36,-1.98 -1.36,-3.37 0,-1.41 0.49,-2.51 1.47,-3.29 0.98,-0.79 2.38,-1.19 4.21,-1.21l3.88 0 0 -0.17c0,-0.71 -0.25,-1.26 -0.73,-1.65 -0.49,-0.38 -1.19,-0.57 -2.1,-0.57 -0.62,0 -1.33,0.1 -2.1,0.3 -0.78,0.2 -1.57,0.49 -2.35,0.88l-1.35 -3.3c1.21,-0.55 2.37,-0.96 3.48,-1.22 1.1,-0.27 2.25,-0.4 3.44,-0.4zm-1.26 11.95c0.73,0 1.37,-0.18 1.92,-0.53 0.55,-0.36 0.9,-0.82 1.05,-1.39l0 -1.29 -2.91 0c-1.38,0 -2.07,0.51 -2.07,1.53 0,0.52 0.18,0.93 0.54,1.23 0.36,0.3 0.85,0.45 1.47,0.45zm5.99 -17.66c0,1.42 -0.21,2.5 -0.63,3.24 -0.42,0.73 -1.1,1.1 -2.04,1.1 -0.44,0 -0.84,-0.07 -1.2,-0.21 -0.37,-0.14 -0.8,-0.33 -1.3,-0.59 -0.51,-0.29 -0.89,-0.44 -1.15,-0.44 -0.51,0 -0.77,0.38 -0.77,1.15l-2.77 0c0,-1.43 0.21,-2.51 0.63,-3.25 0.42,-0.74 1.11,-1.11 2.06,-1.11 0.42,0 0.82,0.07 1.21,0.22 0.38,0.14 0.8,0.33 1.26,0.57 0.55,0.3 0.94,0.44 1.16,0.44 0.53,0 0.79,-0.37 0.79,-1.12l2.75 0zm16.14 5.74c1.61,0 3.03,0.31 4.26,0.95 1.23,0.63 2.18,1.52 2.86,2.66 0.67,1.14 1.01,2.47 1.01,3.97 0,1.52 -0.34,2.85 -1.01,4 -0.68,1.14 -1.63,2.03 -2.86,2.66 -1.23,0.63 -2.65,0.95 -4.26,0.95 -1.61,0 -3.03,-0.32 -4.26,-0.95 -1.23,-0.63 -2.17,-1.52 -2.84,-2.66 -0.67,-1.15 -1,-2.48 -1,-4 0,-1.5 0.33,-2.83 1,-3.97 0.67,-1.14 1.61,-2.03 2.84,-2.66 1.23,-0.64 2.65,-0.95 4.26,-0.95zm0 3.95c-0.95,0 -1.72,0.34 -2.31,1.02 -0.58,0.68 -0.88,1.57 -0.88,2.67 0,1.11 0.3,2.01 0.88,2.69 0.59,0.68 1.36,1.01 2.31,1.01 0.97,0 1.75,-0.33 2.34,-1.01 0.58,-0.68 0.87,-1.58 0.87,-2.69 0,-1.1 -0.29,-1.99 -0.89,-2.67 -0.59,-0.68 -1.37,-1.02 -2.32,-1.02z"/>
   <path class="fil1" d="M114 76.48c5.48,-1.06 9.07,-6.37 8.01,-11.84 -1.06,-5.48 -6.37,-9.07 -11.85,-8.01 -5.47,1.06 -9.06,6.38 -8,11.85 1.06,5.47 6.37,9.06 11.84,8zm-5.12 -26.46c4.47,-0.87 8.87,0.13 12.41,2.45 9.45,-8.75 21.08,-14.66 33.82,-17.12 10.61,-2.06 21.65,-1.59 31.98,1.34l-1.92 6.46c-9.41,-2.66 -19.09,-3.06 -28.78,-1.19 -11.4,2.21 -21.81,7.46 -30.29,15.24 1.21,1.81 2.09,3.89 2.53,6.16 1.76,9.12 -4.22,17.97 -13.34,19.74 -9.13,1.76 -17.98,-4.22 -19.75,-13.34 -1.76,-9.12 4.22,-17.98 13.34,-19.74z"/>
   <path class="fil2" d="M195.91 175.21c5.47,-1.06 9.06,-6.38 8,-11.85 -1.06,-5.47 -6.37,-9.06 -11.85,-8 -5.47,1.05 -9.06,6.37 -8,11.84 1.06,5.48 6.37,9.07 11.85,8.01zm-18.77 -10.19c0.12,-7.8 5.68,-14.74 13.64,-16.28 9.13,-1.77 17.98,4.22 19.75,13.34 1.76,9.12 -4.22,17.98 -13.35,19.74 -8.01,1.56 -15.82,-2.88 -18.79,-10.18 -36.09,5.37 -70.46,-18.45 -77.88,-54.43l6.62 -1.28c6.71,32.34 37.56,53.77 70.01,49.09z"/>
   <path class="fil3" d="M243.8 45.64c5.48,-1.06 9.07,-6.37 8.01,-11.84 -1.06,-5.48 -6.38,-9.07 -11.85,-8.01 -5.47,1.06 -9.06,6.38 -8,11.85 1.06,5.47 6.37,9.06 11.84,8zm-95.16 -43.75c29.51,-5.71 59.78,1.65 83.39,20.18 1.92,-1.39 4.17,-2.41 6.65,-2.9 9.12,-1.76 17.98,4.22 19.74,13.35 1.77,9.12 -4.21,17.98 -13.34,19.74 -9.12,1.77 -17.97,-4.22 -19.74,-13.34 -0.82,-4.24 0.05,-8.42 2.12,-11.86 -22.01,-17.1 -50.13,-23.86 -77.54,-18.55 -52.24,10.11 -86.52,60.83 -76.41,113.07 10.11,52.24 60.83,86.52 113.08,76.41 23.45,-4.54 44.23,-17.5 58.61,-36.52l5.41 4.02c-15.38,20.38 -37.63,34.25 -62.75,39.11 -55.88,10.82 -110.15,-25.85 -120.96,-81.74 -10.82,-55.89 25.85,-110.15 81.74,-120.97z"/>
   <path class="fil0" d="M3.53 212.14c3.24,0 6.13,0.35 8.66,1.05 2.54,0.7 4.95,1.66 7.22,2.88l0 60.63c0,3.06 0.46,5.93 1.38,8.6 0.92,2.66 2.17,5.01 3.74,7.02 1.57,2.01 3.43,3.58 5.58,4.72 2.14,1.14 4.39,1.71 6.76,1.71 2.01,0.08 4.3,-0.27 6.89,-1.05 2.58,-0.79 5.31,-2.58 8.2,-5.38l0.13 0.13c1.22,1.66 2.27,3.32 3.15,4.99 0.87,1.66 1.62,3.36 2.23,5.11 -2.89,2.28 -6.06,4.03 -9.52,5.25 -3.45,1.23 -7.15,1.84 -11.08,1.84 -4.64,0 -8.97,-0.88 -13,-2.63 -4.02,-1.74 -7.54,-4.13 -10.56,-7.15 -3.02,-3.02 -5.4,-6.54 -7.15,-10.56 -1.75,-4.03 -2.63,-8.36 -2.63,-12.99l0 -64.17zm69.42 24.67c-2.53,0 -4.66,-0.88 -6.36,-2.63 -1.71,-1.75 -2.56,-3.89 -2.56,-6.43 0,-2.54 0.85,-4.66 2.56,-6.36 1.7,-1.71 3.83,-2.56 6.36,-2.56 2.54,0 4.68,0.85 6.43,2.56 1.75,1.7 2.63,3.82 2.63,6.36 0,2.54 -0.88,4.68 -2.63,6.43 -1.75,1.75 -3.89,2.63 -6.43,2.63zm-8 13.25c2.27,-1.22 4.7,-2.21 7.28,-2.95 2.58,-0.75 5.49,-1.12 8.73,-1.12l0 57.88c-3.76,2.01 -8.05,3.28 -12.86,3.8l-3.15 0 0 -57.61zm93.04 26.64c0,4.64 -0.87,8.97 -2.62,12.99 -1.75,4.03 -4.14,7.55 -7.16,10.57 -3.01,3.01 -6.56,5.4 -10.63,7.15 -4.06,1.75 -8.42,2.62 -13.05,2.62 -4.64,0 -8.97,-0.87 -12.99,-2.62 -4.03,-1.75 -7.55,-4.14 -10.57,-7.15 -3.02,-3.02 -5.4,-6.54 -7.15,-10.57 -1.75,-4.02 -2.63,-8.35 -2.63,-12.99 0,-4.64 0.88,-8.97 2.63,-12.99 1.75,-4.03 4.13,-7.55 7.15,-10.57 3.02,-3.01 6.54,-5.4 10.57,-7.15 4.02,-1.75 8.35,-2.62 12.99,-2.62 4.98,0 9.62,1 13.91,3.02l0 16.79c-1.58,-2.71 -3.57,-4.87 -5.97,-6.49 -2.41,-1.62 -5.06,-2.43 -7.94,-2.43 -2.36,0 -4.6,0.59 -6.7,1.77 -2.1,1.18 -3.93,2.78 -5.51,4.79 -1.57,2.01 -2.82,4.38 -3.74,7.09 -0.92,2.71 -1.38,5.64 -1.38,8.79 0,3.06 0.46,5.97 1.38,8.73 0.92,2.75 2.17,5.14 3.74,7.15 1.58,2.01 3.41,3.61 5.51,4.79 2.1,1.18 4.34,1.77 6.7,1.77 2.36,0 4.59,-0.59 6.69,-1.77 2.1,-1.18 3.94,-2.78 5.51,-4.79 1.58,-2.01 2.84,-4.35 3.81,-7.02 0.96,-2.67 1.44,-5.53 1.44,-8.6l0 -60.36c2.28,-1.23 4.7,-2.19 7.28,-2.89 2.58,-0.7 5.49,-1.05 8.73,-1.05l0 64.04zm40.68 -33.46c3.76,0 7.35,0.68 10.76,2.03 3.41,1.36 6.37,3.17 8.86,5.45 2.49,2.27 4.46,4.9 5.91,7.87 1.44,2.98 2.07,6.08 1.9,9.32 -0.18,3.85 -1.44,7.11 -3.81,9.77 -2.36,2.67 -5.4,4.73 -9.12,6.17 -3.72,1.45 -7.96,2.32 -12.73,2.63 -4.76,0.3 -9.64,-0.02 -14.63,-0.99 -1.22,-3.15 -1.84,-6.38 -1.84,-9.71l0 -1.57c6.57,1.31 11.71,1.7 15.42,1.18 3.72,-0.53 6.5,-1.45 8.34,-2.76 1.83,-1.31 2.97,-2.69 3.41,-4.13 0.44,-1.44 0.66,-2.43 0.66,-2.95 0,-0.44 -0.11,-1.25 -0.33,-2.43 -0.22,-1.18 -0.79,-2.39 -1.71,-3.61 -0.92,-1.22 -2.27,-2.3 -4.07,-3.22 -1.79,-0.91 -4.31,-1.37 -7.54,-1.37 -2.54,0 -4.84,0.54 -6.89,1.64 -2.06,1.09 -3.83,2.62 -5.32,4.59 -1.48,1.97 -2.64,4.33 -3.47,7.09 -0.84,2.75 -1.25,5.75 -1.25,8.99 0,3.06 0.46,5.9 1.38,8.53 0.92,2.62 2.16,4.92 3.74,6.89 1.57,1.96 3.41,3.52 5.51,4.65 2.1,1.14 4.37,1.71 6.82,1.71 2.1,0.17 4.07,-0.02 5.91,-0.59 1.83,-0.57 3.45,-1.29 4.85,-2.17 1.58,-0.96 3.06,-2.1 4.46,-3.41l7.75 7.88c-2.98,2.88 -6.43,5.16 -10.37,6.82 -3.94,1.66 -8.14,2.49 -12.6,2.49 -4.63,0 -8.99,-0.87 -13.06,-2.62 -4.06,-1.75 -7.61,-4.14 -10.63,-7.15 -3.01,-3.02 -5.4,-6.54 -7.15,-10.57 -1.75,-4.02 -2.62,-8.35 -2.62,-12.99 0,-4.64 0.87,-8.99 2.62,-13.06 1.75,-4.06 4.14,-7.61 7.15,-10.63 3.02,-3.01 6.57,-5.4 10.63,-7.15 4.07,-1.75 8.43,-2.62 13.06,-2.62zm67.32 1.83c2.02,0 3.96,0.18 5.84,0.53 1.88,0.35 3.7,0.87 5.45,1.57l-4.46 9.98c-2.28,-0.88 -4.55,-1.23 -6.83,-1.05 -2.36,0 -4.59,0.59 -6.69,1.77 -2.1,1.18 -3.94,2.78 -5.51,4.79 -1.58,2.01 -2.82,4.37 -3.74,7.09 -0.92,2.71 -1.38,5.59 -1.38,8.66l0 25.32c-2.27,1.23 -4.7,2.19 -7.28,2.89 -2.58,0.7 -5.49,1.05 -8.73,1.05l0 -29.26c0,-4.55 0.88,-8.86 2.63,-12.93 1.74,-4.07 4.13,-7.61 7.15,-10.63 3.02,-3.02 6.54,-5.4 10.56,-7.15 4.03,-1.75 8.36,-2.63 12.99,-2.63zm44.62 -1.7c4.64,0 8.97,0.87 12.99,2.62 4.03,1.75 7.55,4.14 10.57,7.15 3.02,3.02 5.4,6.54 7.15,10.57 1.75,4.02 2.62,8.35 2.62,12.99l0 31.23c-3.15,0 -6.01,-0.35 -8.59,-1.05 -2.58,-0.7 -5.01,-1.66 -7.29,-2.88l0 -27.3c0,-1.57 -0.1,-3.08 -0.32,-4.53 -0.22,-1.44 -0.55,-2.86 -0.99,-4.26 -1.4,-4.03 -3.52,-7.31 -6.36,-9.84 -2.85,-2.54 -6.1,-3.81 -9.78,-3.81 -2.36,0 -4.61,0.59 -6.76,1.77 -2.14,1.18 -4,2.78 -5.57,4.79 -1.58,2.01 -2.83,4.38 -3.74,7.09 -0.92,2.71 -1.38,5.64 -1.38,8.79 0,3.06 0.46,5.95 1.38,8.66 0.91,2.71 2.16,5.08 3.74,7.09 1.57,2.01 3.43,3.61 5.57,4.79 2.15,1.18 4.4,1.77 6.76,1.77 2.8,0 5.4,-0.79 7.81,-2.36 2.41,-1.58 4.44,-3.76 6.1,-6.56l0 16.92c-2.1,0.97 -4.31,1.71 -6.63,2.24 -2.31,0.52 -4.74,0.78 -7.28,0.78 -4.64,0 -8.97,-0.87 -12.99,-2.62 -4.02,-1.75 -7.55,-4.14 -10.56,-7.15 -3.02,-3.02 -5.41,-6.54 -7.16,-10.57 -1.75,-4.02 -2.62,-8.35 -2.62,-12.99 0,-4.64 0.87,-8.97 2.62,-12.99 1.75,-4.03 4.14,-7.55 7.16,-10.57 3.01,-3.01 6.54,-5.4 10.56,-7.15 4.02,-1.75 8.35,-2.62 12.99,-2.62z"/>
  </g>
 </g>
</svg>
