<?xml version="1.0" encoding="UTF-8"?>
<!DOCTYPE svg PUBLIC "-//W3C//DTD SVG 1.1//EN" "http://www.w3.org/Graphics/SVG/1.1/DTD/svg11.dtd">
<!-- Creator: CorelDRAW (Versão de avaliação) -->
<svg xmlns="http://www.w3.org/2000/svg" xml:space="preserve" width="1158px" height="619px" version="1.1" style="shape-rendering:geometricPrecision; text-rendering:geometricPrecision; image-rendering:optimizeQuality; fill-rule:evenodd; clip-rule:evenodd"
viewBox="0 0 1128.16 602.73"
 xmlns:xlink="http://www.w3.org/1999/xlink"
 xmlns:xodm="http://www.corel.com/coreldraw/odm/2003">
 <defs>
  <style type="text/css">
   <![CDATA[
    .fil0 {fill:#3F4096;fill-rule:nonzero}
    .fil1 {fill:url(#id0)}
    .fil2 {fill:url(#id1)}
    .fil3 {fill:url(#id2)}
   ]]>
  </style>
  <linearGradient id="id0" gradientUnits="userSpaceOnUse" x1="222.29" y1="108.13" x2="222.29" y2="234.82">
   <stop offset="0" style="stop-opacity:1; stop-color:#F1653F"/>
   <stop offset="0.478431" style="stop-opacity:1; stop-color:#E74E3B"/>
   <stop offset="0.980392" style="stop-opacity:1; stop-color:#DD3539"/>
   <stop offset="1" style="stop-opacity:1; stop-color:#DD3539"/>
  </linearGradient>
  <linearGradient id="id1" gradientUnits="userSpaceOnUse" xlink:href="#id0" x1="264.66" y1="349.99" x2="264.66" y2="520.03">
  </linearGradient>
  <linearGradient id="id2" gradientUnits="userSpaceOnUse" x1="120.32" y1="590.81" x2="357.56" y2="20.21">
   <stop offset="0" style="stop-opacity:1; stop-color:#1078F5"/>
   <stop offset="1" style="stop-opacity:1; stop-color:#06F2F0"/>
  </linearGradient>
 </defs>
 <g id="Camada_x0020_1">
  <metadata id="CorelCorpID_0Corel-Layer"/>
  <path class="fil0" d="M282.18 138.91c8.04,0 15.22,0.87 21.52,2.61 6.31,1.74 12.28,4.13 17.94,7.18l0 150.67c0,7.61 1.14,14.73 3.42,21.36 2.28,6.63 5.38,12.45 9.3,17.45 3.91,5 8.53,8.91 13.86,11.74 5.32,2.82 10.92,4.24 16.79,4.24 5,0.22 10.71,-0.65 17.13,-2.61 6.41,-1.96 13.2,-6.42 20.38,-13.37l0.33 0.32c3.04,4.13 5.65,8.27 7.82,12.4 2.18,4.13 4.02,8.37 5.55,12.72 -7.18,5.65 -15.06,10 -23.65,13.04 -8.59,3.04 -17.77,4.57 -27.56,4.57 -11.52,0 -22.28,-2.18 -32.28,-6.53 -10,-4.34 -18.76,-10.27 -26.26,-17.77 -7.5,-7.5 -13.42,-16.25 -17.77,-26.25 -4.35,-10 -6.52,-20.77 -6.52,-32.29l0 -159.48zm172.52 61.31c-6.31,0 -11.58,-2.17 -15.82,-6.52 -4.24,-4.35 -6.36,-9.67 -6.36,-15.98 0,-6.3 2.12,-11.58 6.36,-15.82 4.24,-4.24 9.51,-6.35 15.82,-6.35 6.3,0 11.63,2.11 15.98,6.35 4.35,4.24 6.52,9.52 6.52,15.82 0,6.31 -2.17,11.63 -6.52,15.98 -4.35,4.35 -9.68,6.52 -15.98,6.52zm-19.89 32.94c5.65,-3.04 11.68,-5.49 18.09,-7.33 6.42,-1.85 13.65,-2.78 21.69,-2.78l0 143.83c-9.35,5 -20,8.15 -31.96,9.45l-7.82 0 0 -143.17zm231.22 66.21c0,11.52 -2.17,22.28 -6.52,32.29 -4.35,10 -10.27,18.75 -17.78,26.25 -7.5,7.5 -16.3,13.42 -26.41,17.77 -10.11,4.35 -20.93,6.53 -32.45,6.53 -11.53,0 -22.29,-2.18 -32.29,-6.53 -10,-4.35 -18.75,-10.27 -26.25,-17.77 -7.5,-7.5 -13.43,-16.25 -17.78,-26.25 -4.34,-10.01 -6.52,-20.77 -6.52,-32.29 0,-11.52 2.18,-22.29 6.52,-32.29 4.35,-10 10.28,-18.75 17.78,-26.25 7.5,-7.5 16.25,-13.43 26.25,-17.78 10,-4.34 20.76,-6.52 32.29,-6.52 12.39,0 23.91,2.5 34.57,7.5l0 41.75c-3.92,-6.74 -8.86,-12.12 -14.84,-16.15 -5.98,-4.02 -12.56,-6.03 -19.73,-6.03 -5.87,0 -11.42,1.47 -16.63,4.4 -5.22,2.94 -9.79,6.91 -13.7,11.91 -3.92,5 -7.01,10.87 -9.3,17.61 -2.28,6.74 -3.42,14.02 -3.42,21.85 0,7.61 1.14,14.84 3.42,21.69 2.29,6.84 5.38,12.77 9.3,17.77 3.91,5 8.48,8.97 13.7,11.9 5.21,2.94 10.76,4.41 16.63,4.41 5.87,0 11.41,-1.47 16.63,-4.41 5.22,-2.93 9.78,-6.9 13.7,-11.9 3.91,-5 7.06,-10.82 9.46,-17.45 2.39,-6.63 3.58,-13.75 3.58,-21.36l0 -150.02c5.66,-3.04 11.69,-5.44 18.1,-7.17 6.42,-1.74 13.65,-2.61 21.69,-2.61l0 159.15zm101.1 -83.16c9.35,0 18.27,1.68 26.74,5.05 8.48,3.37 15.82,7.88 22.02,13.54 6.19,5.65 11.09,12.17 14.67,19.56 3.59,7.4 5.17,15.11 4.73,23.16 -0.43,9.56 -3.58,17.66 -9.45,24.29 -5.88,6.64 -13.43,11.74 -22.67,15.33 -9.24,3.59 -19.79,5.76 -31.64,6.53 -11.85,0.76 -23.97,-0.06 -36.36,-2.45 -3.04,-7.83 -4.56,-15.87 -4.56,-24.14l0 -3.91c16.3,3.26 29.07,4.24 38.32,2.94 9.24,-1.31 16.14,-3.59 20.7,-6.85 4.57,-3.26 7.4,-6.69 8.48,-10.27 1.09,-3.59 1.63,-6.04 1.63,-7.34 0,-1.09 -0.27,-3.1 -0.81,-6.04 -0.54,-2.93 -1.96,-5.92 -4.24,-8.96 -2.28,-3.05 -5.65,-5.71 -10.11,-7.99 -4.46,-2.29 -10.71,-3.43 -18.75,-3.43 -6.31,0 -12.02,1.36 -17.12,4.08 -5.11,2.72 -9.52,6.52 -13.21,11.41 -3.7,4.89 -6.58,10.76 -8.65,17.61 -2.06,6.85 -3.09,14.3 -3.09,22.34 0,7.61 1.14,14.68 3.42,21.2 2.28,6.52 5.38,12.23 9.3,17.12 3.91,4.9 8.47,8.75 13.69,11.58 5.22,2.83 10.87,4.24 16.96,4.24 5.22,0.44 10.11,-0.05 14.68,-1.47 4.56,-1.41 8.59,-3.2 12.06,-5.38 3.92,-2.39 7.61,-5.22 11.09,-8.48l19.24 19.57c-7.39,7.18 -15.98,12.83 -25.76,16.96 -9.78,4.13 -20.22,6.2 -31.31,6.2 -11.52,0 -22.34,-2.18 -32.45,-6.53 -10.11,-4.35 -18.91,-10.27 -26.42,-17.77 -7.5,-7.5 -13.42,-16.25 -17.77,-26.25 -4.35,-10.01 -6.52,-20.77 -6.52,-32.29 0,-11.52 2.17,-22.34 6.52,-32.45 4.35,-10.11 10.27,-18.92 17.77,-26.42 7.51,-7.5 16.31,-13.42 26.42,-17.77 10.11,-4.35 20.93,-6.52 32.45,-6.52zm167.31 4.56c5,0 9.83,0.44 14.51,1.3 4.67,0.87 9.18,2.18 13.53,3.92l-11.08 24.78c-5.66,-2.17 -11.31,-3.04 -16.96,-2.6 -5.87,0 -11.42,1.46 -16.64,4.4 -5.22,2.93 -9.78,6.9 -13.69,11.9 -3.92,5 -7.02,10.87 -9.3,17.61 -2.28,6.74 -3.42,13.92 -3.42,21.53l0 62.94c-5.66,3.04 -11.69,5.44 -18.1,7.18 -6.42,1.73 -13.65,2.6 -21.69,2.6l0 -72.72c0,-11.31 2.17,-22.02 6.52,-32.13 4.35,-10.11 10.27,-18.91 17.78,-26.41 7.5,-7.5 16.25,-13.43 26.25,-17.78 10,-4.35 20.76,-6.52 32.29,-6.52zm110.88 -4.24c11.52,0 22.29,2.18 32.29,6.52 10,4.35 18.75,10.28 26.25,17.78 7.5,7.5 13.43,16.25 17.77,26.25 4.35,10 6.53,20.77 6.53,32.29l0 77.62c-7.83,0 -14.95,-0.87 -21.36,-2.61 -6.42,-1.74 -12.45,-4.13 -18.1,-7.18l0 -67.83c0,-3.92 -0.28,-7.67 -0.82,-11.25 -0.54,-3.59 -1.36,-7.12 -2.45,-10.6 -3.47,-10 -8.75,-18.16 -15.81,-24.46 -7.07,-6.31 -15.17,-9.46 -24.3,-9.46 -5.87,0 -11.47,1.47 -16.8,4.4 -5.32,2.94 -9.94,6.91 -13.86,11.91 -3.91,5 -7.01,10.87 -9.29,17.61 -2.28,6.74 -3.42,14.02 -3.42,21.85 0,7.61 1.14,14.78 3.42,21.52 2.28,6.74 5.38,12.61 9.29,17.61 3.92,5 8.54,8.97 13.86,11.91 5.33,2.93 10.93,4.4 16.8,4.4 6.96,0 13.43,-1.96 19.41,-5.87 5.97,-3.91 11.03,-9.35 15.16,-16.31l0 42.07c-5.22,2.4 -10.71,4.24 -16.47,5.55 -5.76,1.3 -11.79,1.96 -18.1,1.96 -11.52,0 -22.29,-2.18 -32.29,-6.53 -10,-4.35 -18.75,-10.27 -26.25,-17.77 -7.5,-7.5 -13.43,-16.25 -17.77,-26.25 -4.35,-10.01 -6.53,-20.77 -6.53,-32.29 0,-11.52 2.18,-22.29 6.53,-32.29 4.34,-10 10.27,-18.75 17.77,-26.25 7.5,-7.5 16.25,-13.43 26.25,-17.78 10,-4.34 20.77,-6.52 32.29,-6.52z"/>
  <path class="fil0" d="M455.35 413.72l31.63 0 0 7.94 -11.05 0 0 28.95 -9.63 0 0 -28.95 -10.95 0 0 -7.94zm52.65 8.1c4.63,0 8.2,1.37 10.69,4.11 2.49,2.73 3.73,6.49 3.73,11.26 0,0.74 -0.01,1.3 -0.05,1.68l-19.79 0c0.46,1.62 1.25,2.85 2.37,3.71 1.12,0.86 2.49,1.29 4.11,1.29 1.22,0 2.41,-0.24 3.55,-0.73 1.14,-0.5 2.18,-1.21 3.13,-2.16l4.89 4.89c-1.47,1.65 -3.25,2.91 -5.34,3.77 -2.08,0.86 -4.44,1.28 -7.08,1.28 -3.05,0 -5.71,-0.59 -8,-1.78 -2.28,-1.2 -4.02,-2.88 -5.23,-5.06 -1.21,-2.17 -1.82,-4.7 -1.82,-7.57 0,-2.92 0.62,-5.49 1.84,-7.72 1.23,-2.22 2.97,-3.94 5.21,-5.15 2.25,-1.21 4.85,-1.82 7.79,-1.82zm5.32 12.05c0,-1.65 -0.48,-2.97 -1.45,-3.97 -0.96,-1 -2.23,-1.5 -3.81,-1.5 -1.48,0 -2.71,0.49 -3.71,1.47 -1,0.99 -1.66,2.32 -1.98,4l10.95 0zm40.23 -1.36c-1.33,-1.97 -3.19,-2.95 -5.58,-2.95 -1.68,0 -3.05,0.64 -4.1,1.92 -1.05,1.28 -1.58,2.94 -1.58,4.97 0,2.07 0.53,3.74 1.58,5 1.05,1.27 2.42,1.9 4.1,1.9 2.6,0 4.46,-1.07 5.58,-3.21l6.9 3.94c-1.13,2.18 -2.81,3.86 -5.06,5.06 -2.24,1.19 -4.87,1.78 -7.89,1.78 -2.91,0 -5.47,-0.59 -7.68,-1.78 -2.21,-1.2 -3.92,-2.88 -5.13,-5.06 -1.22,-2.17 -1.82,-4.7 -1.82,-7.57 0,-2.92 0.61,-5.49 1.84,-7.72 1.23,-2.22 2.96,-3.94 5.19,-5.15 2.22,-1.21 4.79,-1.82 7.71,-1.82 2.84,0 5.36,0.59 7.57,1.76 2.21,1.18 3.93,2.84 5.16,4.98l-6.79 3.95zm37.97 -10.74c3.12,0 5.62,0.98 7.5,2.95 1.88,1.96 2.82,4.61 2.82,7.94l0 17.95 -9.32 0 0 -15.26c0,-1.62 -0.44,-2.89 -1.31,-3.82 -0.88,-0.93 -2.06,-1.39 -3.53,-1.39 -1.55,0.03 -2.82,0.54 -3.82,1.52 -1,0.99 -1.58,2.28 -1.76,3.9l0 15.05 -9.37 0 0 -28.47 9.37 0 0 4.63c1.02,-1.65 2.33,-2.9 3.92,-3.74 1.6,-0.84 3.43,-1.26 5.5,-1.26zm37.87 0.05c3.08,0 5.8,0.61 8.15,1.82 2.35,1.21 4.18,2.91 5.48,5.1 1.29,2.2 1.94,4.73 1.94,7.61 0,2.91 -0.65,5.46 -1.94,7.65 -1.3,2.2 -3.13,3.9 -5.48,5.11 -2.35,1.21 -5.07,1.81 -8.15,1.81 -3.09,0 -5.81,-0.6 -8.16,-1.81 -2.35,-1.21 -4.17,-2.91 -5.45,-5.11 -1.28,-2.19 -1.92,-4.74 -1.92,-7.65 0,-2.88 0.64,-5.41 1.92,-7.61 1.28,-2.19 3.1,-3.89 5.45,-5.1 2.35,-1.21 5.07,-1.82 8.16,-1.82zm0 7.58c-1.83,0 -3.3,0.65 -4.43,1.95 -1.12,1.3 -1.68,3 -1.68,5.1 0,2.14 0.56,3.86 1.68,5.16 1.13,1.3 2.6,1.95 4.43,1.95 1.85,0 3.35,-0.65 4.47,-1.95 1.12,-1.3 1.68,-3.02 1.68,-5.16 0,-2.1 -0.57,-3.8 -1.71,-5.1 -1.14,-1.3 -2.62,-1.95 -4.44,-1.95zm28.6 -17.84l9.36 0 0 39.05 -9.36 0 0 -39.05zm37.97 10.26c3.08,0 5.8,0.61 8.15,1.82 2.35,1.21 4.18,2.91 5.48,5.1 1.29,2.2 1.94,4.73 1.94,7.61 0,2.91 -0.65,5.46 -1.94,7.65 -1.3,2.2 -3.13,3.9 -5.48,5.11 -2.35,1.21 -5.07,1.81 -8.15,1.81 -3.09,0 -5.81,-0.6 -8.16,-1.81 -2.35,-1.21 -4.17,-2.91 -5.45,-5.11 -1.28,-2.19 -1.92,-4.74 -1.92,-7.65 0,-2.88 0.64,-5.41 1.92,-7.61 1.28,-2.19 3.1,-3.89 5.45,-5.1 2.35,-1.21 5.07,-1.82 8.16,-1.82zm0 7.58c-1.83,0 -3.3,0.65 -4.42,1.95 -1.13,1.3 -1.69,3 -1.69,5.1 0,2.14 0.56,3.86 1.69,5.16 1.12,1.3 2.59,1.95 4.42,1.95 1.86,0 3.35,-0.65 4.47,-1.95 1.12,-1.3 1.68,-3.02 1.68,-5.16 0,-2.1 -0.57,-3.8 -1.71,-5.1 -1.14,-1.3 -2.62,-1.95 -4.44,-1.95zm55.59 -7.26l0 25.94c0,2.63 -0.64,4.94 -1.94,6.92 -1.3,1.99 -3.12,3.51 -5.45,4.58 -2.33,1.07 -5.03,1.61 -8.08,1.61 -2.38,0 -4.68,-0.34 -6.89,-1 -2.21,-0.67 -4.16,-1.56 -5.84,-2.69l3.26 -6.47c1.3,0.88 2.7,1.56 4.21,2.05 1.51,0.49 3.03,0.74 4.58,0.74 2.1,0 3.77,-0.49 5,-1.47 1.23,-0.99 1.84,-2.32 1.84,-4l0 -3.06c-1.89,2.49 -4.6,3.74 -8.11,3.74 -2.35,0 -4.44,-0.57 -6.28,-1.71 -1.85,-1.14 -3.28,-2.75 -4.32,-4.84 -1.03,-2.09 -1.55,-4.48 -1.55,-7.19 0,-2.66 0.5,-5.01 1.5,-7.05 1,-2.03 2.41,-3.61 4.23,-4.73 1.83,-1.13 3.9,-1.69 6.21,-1.69 1.76,0 3.35,0.33 4.77,0.98 1.42,0.64 2.6,1.58 3.55,2.81l0 -3.47 9.31 0zm-15.05 20.05c1.72,0 3.11,-0.62 4.16,-1.84 1.05,-1.23 1.58,-2.83 1.58,-4.79 0,-2 -0.53,-3.62 -1.58,-4.84 -1.05,-1.23 -2.44,-1.85 -4.16,-1.85 -1.72,0 -3.11,0.63 -4.18,1.87 -1.07,1.25 -1.61,2.85 -1.61,4.82 0,1.96 0.54,3.56 1.61,4.79 1.07,1.22 2.46,1.84 4.18,1.84zm29.87 -20.05l9.31 0 0 28.47 -9.31 0 0 -28.47zm4.58 -13.11c1.44,0 2.62,0.47 3.55,1.4 0.93,0.93 1.39,2.13 1.39,3.6 0,1.44 -0.46,2.63 -1.39,3.58 -0.93,0.95 -2.11,1.42 -3.55,1.42 -1.44,0 -2.63,-0.47 -3.56,-1.42 -0.93,-0.95 -1.39,-2.14 -1.39,-3.58 0,-1.47 0.46,-2.67 1.39,-3.6 0.93,-0.93 2.12,-1.4 3.56,-1.4zm32.7 12.74c3.93,0 6.99,0.9 9.16,2.71 2.18,1.81 3.28,4.34 3.32,7.6l0 18.53 -9.21 0 0 -3.21c-1.9,2.42 -4.76,3.63 -8.58,3.63 -3.02,0 -5.4,-0.82 -7.13,-2.45 -1.74,-1.63 -2.61,-3.78 -2.61,-6.44 0,-2.71 0.94,-4.81 2.82,-6.32 1.87,-1.51 4.57,-2.28 8.08,-2.31l7.42 0 0 -0.32c0,-1.37 -0.47,-2.42 -1.4,-3.16 -0.93,-0.73 -2.27,-1.1 -4.03,-1.1 -1.19,0 -2.53,0.19 -4.02,0.58 -1.49,0.38 -2.99,0.94 -4.5,1.68l-2.58 -6.32c2.32,-1.05 4.54,-1.83 6.66,-2.34 2.12,-0.51 4.32,-0.76 6.6,-0.76zm-2.42 22.89c1.41,0 2.63,-0.34 3.69,-1.02 1.05,-0.69 1.71,-1.57 2,-2.66l0 -2.48 -5.58 0c-2.63,0 -3.95,0.99 -3.95,2.95 0,0.98 0.34,1.77 1.03,2.34 0.68,0.58 1.62,0.87 2.81,0.87zm53.39 -22.84c4.63,0 8.19,1.37 10.68,4.11 2.5,2.73 3.74,6.49 3.74,11.26 0,0.74 -0.02,1.3 -0.05,1.68l-19.79 0c0.46,1.62 1.25,2.85 2.37,3.71 1.12,0.86 2.49,1.29 4.1,1.29 1.23,0 2.42,-0.24 3.56,-0.73 1.14,-0.5 2.18,-1.21 3.13,-2.16l4.89 4.89c-1.47,1.65 -3.25,2.91 -5.34,3.77 -2.09,0.86 -4.45,1.28 -7.08,1.28 -3.05,0 -5.72,-0.59 -8,-1.78 -2.28,-1.2 -4.02,-2.88 -5.23,-5.06 -1.21,-2.17 -1.82,-4.7 -1.82,-7.57 0,-2.92 0.61,-5.49 1.84,-7.72 1.23,-2.22 2.97,-3.94 5.21,-5.15 2.25,-1.21 4.84,-1.82 7.79,-1.82zm5.32 12.05c0,-1.65 -0.49,-2.97 -1.45,-3.97 -0.97,-1 -2.24,-1.5 -3.82,-1.5 -1.47,0 -2.71,0.49 -3.71,1.47 -1,0.99 -1.65,2.32 -1.97,4l10.95 0zm57.97 -2.1l8.31 0 0 14.68c-1.96,1.44 -4.38,2.61 -7.24,3.5 -2.85,0.9 -5.57,1.34 -8.13,1.34 -3.72,0 -7.08,-0.83 -10.08,-2.5 -2.99,-1.66 -5.35,-3.95 -7.07,-6.86 -1.72,-2.92 -2.58,-6.18 -2.58,-9.79 0,-3.58 0.88,-6.82 2.66,-9.71 1.77,-2.9 4.21,-5.17 7.31,-6.82 3.11,-1.65 6.57,-2.47 10.39,-2.47 2.74,0 5.48,0.5 8.21,1.5 2.74,1 5.06,2.34 6.95,4.02l-5.47 6.74c-1.34,-1.26 -2.87,-2.26 -4.61,-3 -1.73,-0.74 -3.44,-1.1 -5.13,-1.1 -1.96,0 -3.73,0.47 -5.31,1.42 -1.58,0.94 -2.83,2.24 -3.74,3.89 -0.91,1.65 -1.37,3.49 -1.37,5.53 0,2.07 0.46,3.93 1.37,5.6 0.91,1.67 2.18,2.98 3.79,3.92 1.61,0.95 3.4,1.42 5.37,1.42 1.86,0 3.98,-0.59 6.37,-1.79l0 -9.52zm35.18 -9.95c4.63,0 8.19,1.37 10.68,4.11 2.49,2.73 3.74,6.49 3.74,11.26 0,0.74 -0.02,1.3 -0.06,1.68l-19.79 0c0.46,1.62 1.25,2.85 2.37,3.71 1.13,0.86 2.49,1.29 4.11,1.29 1.23,0 2.41,-0.24 3.55,-0.73 1.14,-0.5 2.18,-1.21 3.13,-2.16l4.9 4.89c-1.48,1.65 -3.26,2.91 -5.35,3.77 -2.08,0.86 -4.44,1.28 -7.07,1.28 -3.06,0 -5.72,-0.59 -8,-1.78 -2.28,-1.2 -4.03,-2.88 -5.24,-5.06 -1.21,-2.17 -1.82,-4.7 -1.82,-7.57 0,-2.92 0.62,-5.49 1.85,-7.72 1.22,-2.22 2.96,-3.94 5.21,-5.15 2.24,-1.21 4.84,-1.82 7.79,-1.82zm5.31 12.05c0,-1.65 -0.48,-2.97 -1.45,-3.97 -0.96,-1 -2.23,-1.5 -3.81,-1.5 -1.48,0 -2.71,0.49 -3.71,1.47 -1,0.99 -1.66,2.32 -1.98,4l10.95 0zm40.87 -2.73c-3.69,-1.93 -6.71,-2.9 -9.06,-2.9 -0.8,0 -1.45,0.15 -1.94,0.45 -0.49,0.3 -0.74,0.75 -0.74,1.34 0,0.63 0.39,1.14 1.16,1.53 0.77,0.38 2,0.81 3.68,1.26 2.04,0.6 3.73,1.18 5.08,1.76 1.35,0.58 2.52,1.46 3.5,2.64 0.98,1.17 1.47,2.71 1.47,4.6 0,2.88 -1.11,5.13 -3.34,6.76 -2.23,1.63 -5.13,2.45 -8.71,2.45 -2.42,0 -4.73,-0.34 -6.95,-1.03 -2.21,-0.68 -4.17,-1.69 -5.89,-3.02l2.95 -6.05c1.61,1.12 3.3,1.99 5.08,2.6 1.77,0.62 3.44,0.92 5.02,0.92 0.91,0 1.64,-0.15 2.19,-0.45 0.54,-0.29 0.81,-0.72 0.81,-1.28 0,-0.71 -0.39,-1.25 -1.18,-1.64 -0.79,-0.38 -2.03,-0.8 -3.71,-1.26 -2,-0.6 -3.65,-1.18 -4.95,-1.76 -1.3,-0.58 -2.43,-1.45 -3.39,-2.61 -0.97,-1.16 -1.45,-2.66 -1.45,-4.52 0,-2.88 1.09,-5.13 3.26,-6.77 2.18,-1.63 4.98,-2.44 8.42,-2.44 2.07,0 4.12,0.28 6.13,0.84 2.02,0.56 3.92,1.39 5.71,2.47l-3.15 6.11zm34.7 18c-1.05,0.59 -2.26,1.06 -3.63,1.39 -1.37,0.33 -2.75,0.5 -4.16,0.5 -2.8,0 -5.08,-0.81 -6.81,-2.42 -1.74,-1.61 -2.61,-3.84 -2.61,-6.68l0 -12.21 -3.94 0 0 -6.21 3.94 0 0 -7.9 9.32 0 0 7.9 7.37 0 0 6.21 -7.37 0 0 10.73c0,2 0.82,3 2.47,3 1.02,0 2.23,-0.31 3.63,-0.95l1.79 6.64zm25.29 -27.37c3.93,0 6.98,0.9 9.16,2.71 2.17,1.81 3.28,4.34 3.31,7.6l0 18.53 -9.21 0 0 -3.21c-1.89,2.42 -4.75,3.63 -8.58,3.63 -3.01,0 -5.39,-0.82 -7.13,-2.45 -1.74,-1.63 -2.6,-3.78 -2.6,-6.44 0,-2.71 0.94,-4.81 2.81,-6.32 1.88,-1.51 4.57,-2.28 8.08,-2.31l7.42 0 0 -0.32c0,-1.37 -0.46,-2.42 -1.39,-3.16 -0.93,-0.73 -2.28,-1.1 -4.03,-1.1 -1.19,0 -2.53,0.19 -4.03,0.58 -1.49,0.38 -2.99,0.94 -4.49,1.68l-2.58 -6.32c2.31,-1.05 4.53,-1.83 6.65,-2.34 2.13,-0.51 4.33,-0.76 6.61,-0.76zm-2.42 22.89c1.4,0 2.63,-0.34 3.68,-1.02 1.05,-0.69 1.72,-1.57 2,-2.66l0 -2.48 -5.58 0c-2.63,0 -3.94,0.99 -3.94,2.95 0,0.98 0.34,1.77 1.02,2.34 0.69,0.58 1.62,0.87 2.82,0.87zm11.47 -33.84c0,2.74 -0.4,4.81 -1.21,6.21 -0.81,1.41 -2.11,2.11 -3.89,2.11 -0.85,0 -1.62,-0.13 -2.32,-0.4 -0.7,-0.26 -1.53,-0.64 -2.47,-1.13 -0.99,-0.56 -1.72,-0.84 -2.21,-0.84 -0.99,0 -1.48,0.74 -1.48,2.21l-5.31 0c0,-2.74 0.4,-4.82 1.21,-6.24 0.8,-1.42 2.12,-2.13 3.94,-2.13 0.81,0 1.58,0.14 2.32,0.42 0.74,0.28 1.54,0.65 2.42,1.11 1.05,0.56 1.79,0.84 2.21,0.84 1.02,0 1.53,-0.72 1.53,-2.16l5.26 0zm30.92 11c3.08,0 5.8,0.61 8.15,1.82 2.36,1.21 4.18,2.91 5.48,5.1 1.3,2.2 1.94,4.73 1.94,7.61 0,2.91 -0.64,5.46 -1.94,7.65 -1.3,2.2 -3.12,3.9 -5.48,5.11 -2.35,1.21 -5.07,1.81 -8.15,1.81 -3.09,0 -5.81,-0.6 -8.16,-1.81 -2.35,-1.21 -4.17,-2.91 -5.45,-5.11 -1.28,-2.19 -1.92,-4.74 -1.92,-7.65 0,-2.88 0.64,-5.41 1.92,-7.61 1.28,-2.19 3.1,-3.89 5.45,-5.1 2.35,-1.21 5.07,-1.82 8.16,-1.82zm0 7.58c-1.83,0 -3.3,0.65 -4.42,1.95 -1.13,1.3 -1.69,3 -1.69,5.1 0,2.14 0.56,3.86 1.69,5.16 1.12,1.3 2.59,1.95 4.42,1.95 1.86,0 3.35,-0.65 4.47,-1.95 1.12,-1.3 1.68,-3.02 1.68,-5.16 0,-2.1 -0.56,-3.8 -1.71,-5.1 -1.14,-1.3 -2.62,-1.95 -4.44,-1.95z"/>
  <path class="fil1" d="M143.02 223.25c15.99,-3.1 26.46,-18.61 23.37,-34.58 -3.09,-15.98 -18.6,-26.46 -34.57,-23.37 -15.99,3.09 -26.46,18.6 -23.38,34.57 3.1,15.99 18.61,26.47 34.58,23.38zm-14.94 -77.26c13.05,-2.53 25.89,0.4 36.22,7.17 27.57,-25.56 61.52,-42.8 98.71,-49.99 30.97,-5.99 63.18,-4.64 93.34,3.91l-5.61 18.86c-27.45,-7.77 -55.7,-8.93 -83.99,-3.46 -33.27,6.44 -63.67,21.77 -88.43,44.49 3.54,5.28 6.1,11.34 7.39,17.96 5.15,26.62 -12.32,52.47 -38.94,57.63 -26.63,5.15 -52.48,-12.32 -57.63,-38.94 -5.16,-26.63 12.31,-52.48 38.94,-57.63z"/>
  <path class="fil2" d="M382.09 511.41c15.97,-3.1 26.45,-18.61 23.36,-34.58 -3.09,-15.98 -18.6,-26.46 -34.58,-23.37 -15.97,3.09 -26.45,18.6 -23.36,34.58 3.09,15.98 18.6,26.46 34.58,23.37zm-54.78 -29.74c0.35,-22.78 16.59,-43.03 39.83,-47.52 26.63,-5.15 52.48,12.31 57.63,38.94 5.15,26.62 -12.32,52.47 -38.95,57.63 -23.4,4.53 -46.19,-8.43 -54.87,-29.72 -105.33,15.66 -205.67,-53.86 -227.3,-158.87l19.32 -3.73c19.57,94.39 109.63,156.94 204.34,143.27z"/>
  <path class="fil3" d="M521.89 133.22c15.98,-3.09 26.46,-18.6 23.38,-34.58 -3.1,-15.97 -18.61,-26.45 -34.59,-23.36 -15.97,3.1 -26.46,18.61 -23.36,34.58 3.09,15.97 18.6,26.46 34.57,23.36zm-277.77 -127.7c86.13,-16.66 174.49,4.81 243.39,58.91 5.63,-4.07 12.18,-7.06 19.43,-8.47 26.63,-5.15 52.48,12.32 57.63,38.95 5.15,26.63 -12.31,52.48 -38.94,57.63 -26.62,5.15 -52.47,-12.32 -57.63,-38.94 -2.39,-12.39 0.15,-24.57 6.19,-34.62 -64.24,-49.89 -146.31,-69.63 -226.34,-54.14 -152.48,29.5 -252.52,177.56 -223.02,330.04 29.51,152.48 177.57,252.53 330.05,223.02 68.45,-13.25 129.12,-51.06 171.09,-106.58l15.8 11.73c-44.91,59.47 -109.86,99.98 -183.16,114.16 -163.13,31.57 -321.52,-75.46 -353.09,-238.59 -31.57,-163.13 75.47,-321.53 238.6,-353.1z"/>
 </g>
</svg>
