<?xml version="1.0" encoding="UTF-8"?>
<!DOCTYPE svg PUBLIC "-//W3C//DTD SVG 1.1//EN" "http://www.w3.org/Graphics/SVG/1.1/DTD/svg11.dtd">
<!-- Creator: CorelDRAW (Versão de avaliação) -->
<svg xmlns="http://www.w3.org/2000/svg" xml:space="preserve" width="1158px" height="619px" version="1.1" style="shape-rendering:geometricPrecision; text-rendering:geometricPrecision; image-rendering:optimizeQuality; fill-rule:evenodd; clip-rule:evenodd"
viewBox="0 0 1025.64 547.96"
 xmlns:xlink="http://www.w3.org/1999/xlink"
 xmlns:xodm="http://www.corel.com/coreldraw/odm/2003">
 <defs>
  <style type="text/css">
   <![CDATA[
    .fil0 {fill:white;fill-rule:nonzero}
    .fil1 {fill:url(#id0)}
    .fil2 {fill:url(#id1)}
    .fil3 {fill:url(#id2)}
   ]]>
  </style>
  <linearGradient id="id0" gradientUnits="userSpaceOnUse" x1="202.09" y1="98.3" x2="202.09" y2="213.48">
   <stop offset="0" style="stop-opacity:1; stop-color:#F1653F"/>
   <stop offset="0.478431" style="stop-opacity:1; stop-color:#E74E3B"/>
   <stop offset="0.980392" style="stop-opacity:1; stop-color:#DD3539"/>
   <stop offset="1" style="stop-opacity:1; stop-color:#DD3539"/>
  </linearGradient>
  <linearGradient id="id1" gradientUnits="userSpaceOnUse" xlink:href="#id0" x1="240.61" y1="318.19" x2="240.61" y2="472.77">
  </linearGradient>
  <linearGradient id="id2" gradientUnits="userSpaceOnUse" x1="109.38" y1="537.13" x2="325.07" y2="18.37">
   <stop offset="0" style="stop-opacity:1; stop-color:#1078F5"/>
   <stop offset="1" style="stop-opacity:1; stop-color:#06F2F0"/>
  </linearGradient>
 </defs>
 <g id="Camada_x0020_1">
  <metadata id="CorelCorpID_0Corel-Layer"/>
  <g id="_215191032">
   <path class="fil0" d="M256.53 126.29c7.32,0 13.84,0.79 19.57,2.37 5.74,1.58 11.17,3.76 16.31,6.52l0 136.99c0,6.91 1.04,13.39 3.11,19.42 2.08,6.02 4.9,11.31 8.45,15.86 3.56,4.54 7.76,8.1 12.61,10.67 4.84,2.57 9.93,3.86 15.27,3.86 4.54,0.19 9.73,-0.6 15.56,-2.38 5.83,-1.78 12.01,-5.83 18.53,-12.15l0.3 0.29c2.77,3.76 5.14,7.52 7.11,11.27 1.98,3.76 3.66,7.61 5.04,11.56 -6.52,5.14 -13.68,9.1 -21.49,11.86 -7.81,2.77 -16.16,4.16 -25.05,4.16 -10.48,0 -20.27,-1.98 -29.36,-5.94 -9.09,-3.95 -17.05,-9.33 -23.87,-16.15 -6.82,-6.82 -12.2,-14.78 -16.15,-23.87 -3.96,-9.09 -5.94,-18.88 -5.94,-29.35l0 -144.99zm156.85 55.74c-5.73,0 -10.53,-1.98 -14.38,-5.93 -3.85,-3.95 -5.78,-8.8 -5.78,-14.53 0,-5.73 1.93,-10.52 5.78,-14.38 3.85,-3.85 8.65,-5.78 14.38,-5.78 5.73,0 10.58,1.93 14.53,5.78 3.95,3.86 5.93,8.65 5.93,14.38 0,5.73 -1.98,10.58 -5.93,14.53 -3.95,3.95 -8.8,5.93 -14.53,5.93zm-18.09 29.95c5.14,-2.77 10.63,-4.99 16.46,-6.67 5.83,-1.68 12.4,-2.52 19.72,-2.52l0 130.75c-8.5,4.54 -18.19,7.41 -29.06,8.6l-7.12 0 0 -130.16zm210.22 60.19c0,10.47 -1.98,20.26 -5.93,29.35 -3.95,9.09 -9.34,17.05 -16.16,23.87 -6.82,6.81 -14.83,12.2 -24.02,16.15 -9.19,3.96 -19.02,5.93 -29.5,5.93 -10.47,0 -20.26,-1.97 -29.35,-5.93 -9.09,-3.95 -17.05,-9.34 -23.87,-16.15 -6.82,-6.82 -12.2,-14.78 -16.16,-23.87 -3.95,-9.09 -5.93,-18.88 -5.93,-29.35 0,-10.48 1.98,-20.27 5.93,-29.36 3.96,-9.09 9.34,-17.05 16.16,-23.87 6.82,-6.82 14.78,-12.2 23.87,-16.15 9.09,-3.96 18.88,-5.93 29.35,-5.93 11.27,0 21.75,2.27 31.43,6.81l0 37.96c-3.56,-6.13 -8.05,-11.02 -13.49,-14.68 -5.44,-3.66 -11.41,-5.49 -17.94,-5.49 -5.33,0 -10.37,1.34 -15.12,4.01 -4.74,2.67 -8.89,6.27 -12.45,10.82 -3.56,4.54 -6.38,9.88 -8.45,16.01 -2.08,6.13 -3.11,12.75 -3.11,19.87 0,6.91 1.03,13.49 3.11,19.71 2.07,6.23 4.89,11.61 8.45,16.16 3.56,4.55 7.71,8.15 12.45,10.82 4.75,2.67 9.79,4.01 15.12,4.01 5.34,0 10.38,-1.34 15.12,-4.01 4.75,-2.67 8.9,-6.27 12.46,-10.82 3.55,-4.55 6.42,-9.83 8.59,-15.86 2.18,-6.03 3.27,-12.5 3.27,-19.42l0 -136.39c5.14,-2.77 10.62,-4.94 16.45,-6.52 5.83,-1.58 12.41,-2.37 19.72,-2.37l0 144.69zm91.91 -75.61c8.5,0 16.61,1.53 24.32,4.59 7.7,3.07 14.38,7.17 20.01,12.31 5.63,5.14 10.08,11.07 13.34,17.79 3.26,6.72 4.7,13.74 4.3,21.05 -0.4,8.7 -3.26,16.06 -8.6,22.09 -5.34,6.03 -12.2,10.67 -20.6,13.93 -8.41,3.27 -17.99,5.24 -28.77,5.93 -10.77,0.7 -21.79,-0.05 -33.05,-2.22 -2.77,-7.12 -4.15,-14.43 -4.15,-21.94l0 -3.56c14.82,2.97 26.43,3.86 34.83,2.67 8.4,-1.19 14.68,-3.26 18.83,-6.23 4.15,-2.96 6.72,-6.08 7.71,-9.34 0.99,-3.26 1.48,-5.48 1.48,-6.67 0,-0.99 -0.24,-2.81 -0.74,-5.48 -0.49,-2.67 -1.78,-5.39 -3.85,-8.16 -2.08,-2.76 -5.14,-5.18 -9.2,-7.26 -4.05,-2.08 -9.73,-3.11 -17.04,-3.11 -5.74,0 -10.92,1.23 -15.57,3.7 -4.64,2.47 -8.65,5.93 -12.01,10.38 -3.36,4.45 -5.98,9.78 -7.85,16.01 -1.88,6.23 -2.82,13 -2.82,20.31 0,6.92 1.04,13.34 3.11,19.27 2.08,5.93 4.89,11.12 8.45,15.57 3.56,4.45 7.71,7.95 12.45,10.52 4.75,2.57 9.89,3.86 15.42,3.86 4.75,0.39 9.19,-0.05 13.34,-1.34 4.16,-1.28 7.81,-2.91 10.98,-4.89 3.55,-2.17 6.91,-4.74 10.08,-7.71l17.49 17.79c-6.72,6.53 -14.53,11.66 -23.42,15.42 -8.9,3.76 -18.39,5.63 -28.47,5.63 -10.47,0 -20.31,-1.97 -29.5,-5.93 -9.19,-3.95 -17.2,-9.34 -24.02,-16.15 -6.81,-6.82 -12.2,-14.78 -16.15,-23.87 -3.96,-9.09 -5.93,-18.88 -5.93,-29.35 0,-10.48 1.97,-20.32 5.93,-29.51 3.95,-9.19 9.34,-17.19 16.15,-24.01 6.82,-6.82 14.83,-12.21 24.02,-16.16 9.19,-3.95 19.03,-5.93 29.5,-5.93zm152.1 4.15c4.55,0 8.95,0.4 13.2,1.19 4.25,0.79 8.35,1.97 12.3,3.55l-10.08 22.54c-5.14,-1.98 -10.28,-2.77 -15.42,-2.37 -5.33,0 -10.37,1.33 -15.12,4 -4.74,2.67 -8.89,6.27 -12.45,10.82 -3.56,4.55 -6.37,9.88 -8.45,16.01 -2.08,6.13 -3.11,12.65 -3.11,19.57l0 57.22c-5.14,2.77 -10.63,4.94 -16.46,6.53 -5.83,1.58 -12.4,2.37 -19.72,2.37l0 -66.12c0,-10.28 1.98,-20.01 5.93,-29.21 3.96,-9.19 9.34,-17.19 16.16,-24.01 6.82,-6.82 14.78,-12.21 23.87,-16.16 9.09,-3.95 18.88,-5.93 29.35,-5.93zm100.81 -3.85c10.48,0 20.26,1.97 29.36,5.93 9.09,3.95 17.04,9.33 23.86,16.15 6.82,6.82 12.21,14.78 16.16,23.87 3.95,9.09 5.93,18.88 5.93,29.36l0 70.56c-7.11,0 -13.59,-0.79 -19.42,-2.37 -5.83,-1.58 -11.31,-3.76 -16.45,-6.52l0 -61.67c0,-3.56 -0.25,-6.97 -0.75,-10.23 -0.49,-3.27 -1.23,-6.48 -2.22,-9.64 -3.16,-9.09 -7.95,-16.51 -14.38,-22.24 -6.42,-5.73 -13.79,-8.6 -22.09,-8.6 -5.34,0 -10.42,1.34 -15.27,4.01 -4.84,2.67 -9.04,6.27 -12.6,10.82 -3.56,4.54 -6.37,9.88 -8.45,16.01 -2.07,6.13 -3.11,12.75 -3.11,19.87 0,6.91 1.04,13.44 3.11,19.56 2.08,6.13 4.89,11.47 8.45,16.01 3.56,4.55 7.76,8.16 12.6,10.83 4.85,2.66 9.93,4 15.27,4 6.33,0 12.21,-1.78 17.64,-5.34 5.44,-3.56 10.04,-8.5 13.79,-14.82l0 38.24c-4.74,2.18 -9.73,3.86 -14.97,5.04 -5.24,1.19 -10.73,1.78 -16.46,1.78 -10.47,0 -20.26,-1.97 -29.35,-5.93 -9.09,-3.95 -17.05,-9.34 -23.87,-16.15 -6.82,-6.82 -12.2,-14.78 -16.16,-23.87 -3.95,-9.09 -5.93,-18.88 -5.93,-29.35 0,-10.48 1.98,-20.27 5.93,-29.36 3.96,-9.09 9.34,-17.05 16.16,-23.87 6.82,-6.82 14.78,-12.2 23.87,-16.15 9.09,-3.96 18.88,-5.93 29.35,-5.93z"/>
   <path class="fil0" d="M413.97 376.12l28.76 0 0 7.23 -10.05 0 0 26.31 -8.75 0 0 -26.31 -9.96 0 0 -7.23zm47.87 7.37c4.21,0 7.45,1.24 9.71,3.73 2.27,2.49 3.4,5.9 3.4,10.24 0,0.67 -0.02,1.18 -0.05,1.53l-17.99 0c0.42,1.47 1.14,2.59 2.16,3.38 1.02,0.78 2.26,1.17 3.73,1.17 1.11,0 2.19,-0.22 3.23,-0.67 1.03,-0.45 1.98,-1.1 2.84,-1.96l4.45 4.45c-1.34,1.5 -2.95,2.64 -4.85,3.42 -1.9,0.78 -4.05,1.17 -6.44,1.17 -2.77,0 -5.2,-0.54 -7.27,-1.63 -2.07,-1.08 -3.66,-2.61 -4.76,-4.59 -1.1,-1.98 -1.65,-4.27 -1.65,-6.89 0,-2.65 0.56,-4.98 1.67,-7.01 1.12,-2.02 2.7,-3.59 4.74,-4.69 2.04,-1.1 4.4,-1.65 7.08,-1.65zm4.83 10.96c0,-1.5 -0.44,-2.71 -1.31,-3.61 -0.88,-0.91 -2.04,-1.37 -3.47,-1.37 -1.34,0 -2.47,0.45 -3.37,1.34 -0.91,0.89 -1.51,2.11 -1.8,3.64l9.95 0zm36.58 -1.25c-1.21,-1.78 -2.9,-2.68 -5.07,-2.68 -1.53,0 -2.78,0.59 -3.73,1.75 -0.96,1.17 -1.44,2.67 -1.44,4.52 0,1.88 0.48,3.4 1.44,4.55 0.95,1.15 2.2,1.72 3.73,1.72 2.36,0 4.05,-0.97 5.07,-2.92l6.27 3.59c-1.02,1.98 -2.55,3.51 -4.59,4.59 -2.05,1.09 -4.44,1.63 -7.18,1.63 -2.65,0 -4.98,-0.54 -6.99,-1.63 -2.01,-1.08 -3.56,-2.61 -4.66,-4.59 -1.1,-1.98 -1.65,-4.27 -1.65,-6.89 0,-2.65 0.56,-4.98 1.67,-7.01 1.12,-2.02 2.69,-3.59 4.71,-4.69 2.03,-1.1 4.37,-1.65 7.01,-1.65 2.59,0 4.88,0.54 6.89,1.6 2.01,1.07 3.58,2.58 4.69,4.52l-6.17 3.59zm34.52 -9.76c2.84,0 5.11,0.9 6.82,2.68 1.7,1.79 2.56,4.2 2.56,7.23l0 16.31 -8.47 0 0 -13.87c0,-1.47 -0.4,-2.63 -1.2,-3.47 -0.8,-0.85 -1.86,-1.27 -3.2,-1.27 -1.41,0.03 -2.56,0.49 -3.47,1.39 -0.91,0.89 -1.45,2.07 -1.6,3.54l0 13.68 -8.52 0 0 -25.88 8.52 0 0 4.21c0.92,-1.5 2.11,-2.63 3.56,-3.4 1.45,-0.76 3.12,-1.15 5,-1.15zm34.42 0.05c2.81,0 5.28,0.55 7.42,1.65 2.14,1.1 3.79,2.65 4.97,4.64 1.18,2 1.77,4.3 1.77,6.92 0,2.64 -0.59,4.96 -1.77,6.96 -1.18,1.99 -2.83,3.54 -4.97,4.64 -2.14,1.1 -4.61,1.65 -7.42,1.65 -2.8,0 -5.28,-0.55 -7.41,-1.65 -2.14,-1.1 -3.79,-2.65 -4.96,-4.64 -1.16,-2 -1.74,-4.32 -1.74,-6.96 0,-2.62 0.58,-4.92 1.74,-6.92 1.17,-1.99 2.82,-3.54 4.96,-4.64 2.13,-1.1 4.61,-1.65 7.41,-1.65zm0 6.89c-1.66,0 -3,0.59 -4.02,1.77 -1.02,1.18 -1.53,2.73 -1.53,4.64 0,1.95 0.51,3.51 1.53,4.69 1.02,1.18 2.36,1.77 4.02,1.77 1.69,0 3.05,-0.59 4.07,-1.77 1.02,-1.18 1.53,-2.74 1.53,-4.69 0,-1.91 -0.52,-3.46 -1.55,-4.64 -1.04,-1.18 -2.39,-1.77 -4.05,-1.77zm26.01 -16.22l8.51 0 0 35.5 -8.51 0 0 -35.5zm34.51 9.33c2.81,0 5.28,0.55 7.42,1.65 2.14,1.1 3.8,2.65 4.98,4.64 1.18,2 1.77,4.3 1.77,6.92 0,2.64 -0.59,4.96 -1.77,6.96 -1.18,1.99 -2.84,3.54 -4.98,4.64 -2.14,1.1 -4.61,1.65 -7.42,1.65 -2.8,0 -5.28,-0.55 -7.41,-1.65 -2.14,-1.1 -3.79,-2.65 -4.95,-4.64 -1.17,-2 -1.75,-4.32 -1.75,-6.96 0,-2.62 0.58,-4.92 1.75,-6.92 1.16,-1.99 2.81,-3.54 4.95,-4.64 2.13,-1.1 4.61,-1.65 7.41,-1.65zm0 6.89c-1.65,0 -2.99,0.59 -4.01,1.77 -1.03,1.18 -1.54,2.73 -1.54,4.64 0,1.95 0.51,3.51 1.54,4.69 1.02,1.18 2.36,1.77 4.01,1.77 1.69,0 3.05,-0.59 4.07,-1.77 1.02,-1.18 1.53,-2.74 1.53,-4.69 0,-1.91 -0.52,-3.46 -1.55,-4.64 -1.04,-1.18 -2.39,-1.77 -4.05,-1.77zm50.55 -6.6l0 23.59c0,2.39 -0.59,4.49 -1.77,6.29 -1.18,1.8 -2.83,3.19 -4.95,4.16 -2.12,0.97 -4.57,1.46 -7.35,1.46 -2.17,0 -4.25,-0.3 -6.26,-0.91 -2.01,-0.61 -3.78,-1.42 -5.31,-2.44l2.96 -5.88c1.18,0.79 2.46,1.41 3.83,1.86 1.37,0.45 2.76,0.67 4.16,0.67 1.92,0 3.43,-0.45 4.55,-1.34 1.11,-0.89 1.67,-2.1 1.67,-3.64l0 -2.77c-1.72,2.26 -4.18,3.4 -7.37,3.4 -2.13,0 -4.04,-0.52 -5.71,-1.56 -1.68,-1.03 -2.99,-2.5 -3.93,-4.4 -0.94,-1.9 -1.41,-4.07 -1.41,-6.53 0,-2.42 0.46,-4.56 1.36,-6.41 0.91,-1.85 2.2,-3.29 3.86,-4.31 1.66,-1.02 3.54,-1.53 5.64,-1.53 1.6,0 3.04,0.3 4.33,0.89 1.29,0.59 2.37,1.44 3.23,2.56l0 -3.16 8.47 0zm-13.68 18.23c1.56,0 2.82,-0.56 3.78,-1.68 0.95,-1.11 1.43,-2.57 1.43,-4.35 0,-1.82 -0.48,-3.29 -1.43,-4.4 -0.96,-1.12 -2.22,-1.68 -3.78,-1.68 -1.57,0 -2.83,0.57 -3.81,1.7 -0.97,1.13 -1.46,2.59 -1.46,4.38 0,1.78 0.49,3.24 1.46,4.35 0.98,1.12 2.24,1.68 3.81,1.68zm27.15 -18.23l8.47 0 0 25.88 -8.47 0 0 -25.88zm4.16 -11.92c1.31,0 2.39,0.43 3.23,1.27 0.85,0.85 1.27,1.94 1.27,3.28 0,1.31 -0.42,2.39 -1.27,3.25 -0.84,0.86 -1.92,1.3 -3.23,1.3 -1.31,0 -2.38,-0.44 -3.23,-1.3 -0.84,-0.86 -1.27,-1.94 -1.27,-3.25 0,-1.34 0.43,-2.43 1.27,-3.28 0.85,-0.84 1.92,-1.27 3.23,-1.27zm29.74 11.58c3.57,0 6.34,0.82 8.32,2.47 1.98,1.64 2.98,3.94 3.01,6.91l0 16.84 -8.37 0 0 -2.92c-1.72,2.2 -4.32,3.31 -7.8,3.31 -2.74,0 -4.9,-0.75 -6.48,-2.23 -1.58,-1.48 -2.37,-3.44 -2.37,-5.86 0,-2.46 0.85,-4.37 2.56,-5.74 1.71,-1.37 4.16,-2.08 7.35,-2.11l6.74 0 0 -0.28c0,-1.25 -0.42,-2.21 -1.27,-2.88 -0.84,-0.66 -2.06,-1 -3.66,-1 -1.08,0 -2.3,0.18 -3.66,0.53 -1.35,0.35 -2.72,0.86 -4.09,1.53l-2.34 -5.74c2.1,-0.96 4.12,-1.67 6.05,-2.13 1.93,-0.47 3.93,-0.7 6.01,-0.7zm-2.21 20.82c1.28,0 2.4,-0.32 3.35,-0.94 0.96,-0.62 1.57,-1.42 1.82,-2.41l0 -2.25 -5.07 0c-2.39,0 -3.59,0.89 -3.59,2.68 0,0.89 0.31,1.6 0.93,2.13 0.63,0.52 1.48,0.79 2.56,0.79zm48.54 -20.77c4.21,0 7.45,1.24 9.71,3.73 2.27,2.49 3.4,5.9 3.4,10.24 0,0.67 -0.01,1.18 -0.05,1.53l-17.99 0c0.42,1.47 1.14,2.59 2.16,3.38 1.02,0.78 2.26,1.17 3.73,1.17 1.12,0 2.19,-0.22 3.23,-0.67 1.03,-0.45 1.98,-1.1 2.85,-1.96l4.44 4.45c-1.33,1.5 -2.95,2.64 -4.85,3.42 -1.9,0.78 -4.04,1.17 -6.44,1.17 -2.77,0 -5.2,-0.54 -7.27,-1.63 -2.07,-1.08 -3.66,-2.61 -4.76,-4.59 -1.1,-1.98 -1.65,-4.27 -1.65,-6.89 0,-2.65 0.56,-4.98 1.67,-7.01 1.12,-2.02 2.7,-3.59 4.74,-4.69 2.04,-1.1 4.4,-1.65 7.08,-1.65zm4.83 10.96c0,-1.5 -0.43,-2.71 -1.31,-3.61 -0.88,-0.91 -2.03,-1.37 -3.47,-1.37 -1.34,0 -2.46,0.45 -3.37,1.34 -0.91,0.89 -1.51,2.11 -1.8,3.64l9.95 0zm52.71 -1.92l7.56 0 0 13.35c-1.79,1.31 -3.98,2.37 -6.58,3.18 -2.6,0.82 -5.07,1.23 -7.4,1.23 -3.38,0 -6.43,-0.76 -9.16,-2.28 -2.73,-1.51 -4.87,-3.59 -6.43,-6.24 -1.57,-2.65 -2.35,-5.62 -2.35,-8.9 0,-3.26 0.81,-6.2 2.42,-8.83 1.61,-2.63 3.83,-4.7 6.65,-6.19 2.82,-1.5 5.97,-2.25 9.45,-2.25 2.49,0 4.97,0.45 7.46,1.36 2.49,0.91 4.6,2.13 6.32,3.66l-4.98 6.12c-1.21,-1.14 -2.61,-2.05 -4.18,-2.72 -1.58,-0.67 -3.14,-1.01 -4.67,-1.01 -1.79,0 -3.4,0.43 -4.83,1.29 -1.44,0.87 -2.57,2.05 -3.4,3.54 -0.83,1.5 -1.24,3.18 -1.24,5.03 0,1.88 0.41,3.58 1.24,5.09 0.83,1.52 1.98,2.71 3.45,3.57 1.46,0.86 3.09,1.29 4.88,1.29 1.69,0 3.62,-0.54 5.79,-1.63l0 -8.66zm31.98 -9.04c4.21,0 7.45,1.24 9.71,3.73 2.27,2.49 3.4,5.9 3.4,10.24 0,0.67 -0.02,1.18 -0.05,1.53l-17.99 0c0.41,1.47 1.13,2.59 2.15,3.38 1.02,0.78 2.27,1.17 3.74,1.17 1.11,0 2.19,-0.22 3.22,-0.67 1.04,-0.45 1.99,-1.1 2.85,-1.96l4.45 4.45c-1.34,1.5 -2.96,2.64 -4.85,3.42 -1.9,0.78 -4.05,1.17 -6.44,1.17 -2.78,0 -5.2,-0.54 -7.27,-1.63 -2.08,-1.08 -3.66,-2.61 -4.76,-4.59 -1.1,-1.98 -1.65,-4.27 -1.65,-6.89 0,-2.65 0.55,-4.98 1.67,-7.01 1.12,-2.02 2.7,-3.59 4.74,-4.69 2.04,-1.1 4.4,-1.65 7.08,-1.65zm4.83 10.96c0,-1.5 -0.44,-2.71 -1.31,-3.61 -0.88,-0.91 -2.04,-1.37 -3.47,-1.37 -1.34,0 -2.47,0.45 -3.38,1.34 -0.91,0.89 -1.5,2.11 -1.79,3.64l9.95 0zm37.15 -2.49c-3.35,-1.76 -6.09,-2.63 -8.23,-2.63 -0.73,0 -1.32,0.13 -1.77,0.41 -0.44,0.27 -0.67,0.67 -0.67,1.21 0,0.58 0.35,1.04 1.05,1.39 0.71,0.35 1.82,0.74 3.35,1.15 1.85,0.54 3.39,1.08 4.62,1.6 1.23,0.53 2.29,1.33 3.18,2.4 0.9,1.06 1.34,2.46 1.34,4.18 0,2.62 -1.01,4.67 -3.04,6.15 -2.02,1.48 -4.66,2.23 -7.91,2.23 -2.2,0 -4.31,-0.32 -6.32,-0.94 -2.01,-0.62 -3.8,-1.54 -5.36,-2.75l2.68 -5.5c1.47,1.02 3.01,1.81 4.62,2.37 1.61,0.56 3.13,0.84 4.57,0.84 0.83,0 1.49,-0.14 1.98,-0.41 0.5,-0.27 0.74,-0.66 0.74,-1.17 0,-0.64 -0.35,-1.14 -1.07,-1.49 -0.72,-0.35 -1.84,-0.73 -3.38,-1.15 -1.81,-0.54 -3.31,-1.07 -4.49,-1.6 -1.18,-0.53 -2.21,-1.31 -3.09,-2.37 -0.88,-1.05 -1.31,-2.42 -1.31,-4.11 0,-2.62 0.98,-4.67 2.96,-6.15 1.98,-1.48 4.53,-2.23 7.66,-2.23 1.88,0 3.74,0.26 5.57,0.77 1.84,0.51 3.57,1.26 5.19,2.25l-2.87 5.55zm31.55 16.36c-0.95,0.55 -2.05,0.97 -3.3,1.27 -1.24,0.3 -2.5,0.46 -3.78,0.46 -2.55,0 -4.61,-0.74 -6.19,-2.21 -1.58,-1.46 -2.37,-3.49 -2.37,-6.07l0 -11.1 -3.59 0 0 -5.65 3.59 0 0 -7.17 8.47 0 0 7.17 6.7 0 0 5.65 -6.7 0 0 9.76c0,1.82 0.75,2.73 2.25,2.73 0.92,0 2.02,-0.29 3.3,-0.87l1.62 6.03zm22.99 -24.88c3.58,0 6.35,0.82 8.33,2.47 1.98,1.64 2.98,3.94 3.01,6.91l0 16.84 -8.37 0 0 -2.92c-1.72,2.2 -4.32,3.31 -7.8,3.31 -2.74,0 -4.9,-0.75 -6.48,-2.23 -1.58,-1.48 -2.37,-3.44 -2.37,-5.86 0,-2.46 0.85,-4.37 2.56,-5.74 1.71,-1.37 4.15,-2.08 7.34,-2.11l6.75 0 0 -0.28c0,-1.25 -0.42,-2.21 -1.27,-2.88 -0.84,-0.66 -2.06,-1 -3.66,-1 -1.08,0 -2.3,0.18 -3.66,0.53 -1.35,0.35 -2.72,0.86 -4.09,1.53l-2.34 -5.74c2.1,-0.96 4.12,-1.67 6.05,-2.13 1.93,-0.47 3.93,-0.7 6,-0.7zm-2.2 20.82c1.28,0 2.4,-0.32 3.35,-0.94 0.96,-0.62 1.56,-1.42 1.82,-2.41l0 -2.25 -5.07 0c-2.39,0 -3.59,0.89 -3.59,2.68 0,0.89 0.31,1.6 0.93,2.13 0.62,0.52 1.48,0.79 2.56,0.79zm10.43 -30.77c0,2.49 -0.36,4.37 -1.1,5.65 -0.73,1.27 -1.91,1.91 -3.54,1.91 -0.76,0 -1.47,-0.12 -2.1,-0.36 -0.64,-0.24 -1.39,-0.58 -2.25,-1.03 -0.9,-0.51 -1.56,-0.76 -2.01,-0.76 -0.89,0 -1.34,0.67 -1.34,2.01l-4.83 0c0,-2.49 0.36,-4.38 1.1,-5.67 0.73,-1.29 1.93,-1.94 3.59,-1.94 0.73,0 1.43,0.13 2.1,0.38 0.67,0.26 1.4,0.59 2.2,1.01 0.96,0.51 1.63,0.76 2.01,0.76 0.93,0 1.39,-0.65 1.39,-1.96l4.78 0zm28.11 10c2.81,0 5.28,0.55 7.42,1.65 2.13,1.1 3.79,2.65 4.97,4.64 1.18,2 1.77,4.3 1.77,6.92 0,2.64 -0.59,4.96 -1.77,6.96 -1.18,1.99 -2.84,3.54 -4.97,4.64 -2.14,1.1 -4.61,1.65 -7.42,1.65 -2.81,0 -5.28,-0.55 -7.42,-1.65 -2.13,-1.1 -3.78,-2.65 -4.95,-4.64 -1.16,-2 -1.74,-4.32 -1.74,-6.96 0,-2.62 0.58,-4.92 1.74,-6.92 1.17,-1.99 2.82,-3.54 4.95,-4.64 2.14,-1.1 4.61,-1.65 7.42,-1.65zm0 6.89c-1.66,0 -3,0.59 -4.02,1.77 -1.02,1.18 -1.53,2.73 -1.53,4.64 0,1.95 0.51,3.51 1.53,4.69 1.02,1.18 2.36,1.77 4.02,1.77 1.69,0 3.05,-0.59 4.07,-1.77 1.02,-1.18 1.53,-2.74 1.53,-4.69 0,-1.91 -0.52,-3.46 -1.56,-4.64 -1.03,-1.18 -2.38,-1.77 -4.04,-1.77z"/>
   <path class="fil1" d="M130.03 202.96c14.53,-2.81 24.05,-16.92 21.24,-31.44 -2.81,-14.53 -16.91,-24.05 -31.43,-21.24 -14.53,2.81 -24.06,16.91 -21.25,31.43 2.82,14.53 16.92,24.06 31.44,21.25zm-13.59 -70.24c11.86,-2.3 23.54,0.37 32.93,6.52 25.07,-23.23 55.93,-38.9 89.74,-45.45 28.16,-5.44 57.44,-4.21 84.86,3.56l-5.1 17.15c-24.96,-7.07 -50.64,-8.12 -76.36,-3.15 -30.24,5.85 -57.89,19.8 -80.39,40.45 3.22,4.8 5.55,10.31 6.71,16.32 4.68,24.21 -11.19,47.71 -35.4,52.39 -24.21,4.69 -47.71,-11.19 -52.39,-35.4 -4.69,-24.2 11.19,-47.7 35.4,-52.39z"/>
   <path class="fil2" d="M347.37 464.94c14.52,-2.82 24.05,-16.92 21.24,-31.44 -2.81,-14.53 -16.91,-24.06 -31.44,-21.24 -14.52,2.81 -24.05,16.91 -21.24,31.43 2.81,14.53 16.91,24.05 31.44,21.25zm-49.81 -27.04c0.32,-20.71 15.09,-39.12 36.22,-43.2 24.2,-4.69 47.71,11.19 52.39,35.4 4.68,24.2 -11.2,47.71 -35.41,52.39 -21.27,4.12 -41.99,-7.66 -49.89,-27.01 -95.75,14.23 -186.97,-48.97 -206.64,-144.44l17.56 -3.39c17.8,85.81 99.67,142.68 185.77,130.25z"/>
   <path class="fil3" d="M474.47 121.12c14.53,-2.81 24.05,-16.91 21.25,-31.44 -2.82,-14.52 -16.92,-24.05 -31.44,-21.24 -14.52,2.81 -24.06,16.92 -21.24,31.44 2.81,14.52 16.91,24.05 31.43,21.24zm-252.53 -116.1c78.3,-15.15 158.63,4.37 221.27,53.56 5.12,-3.71 11.07,-6.42 17.67,-7.7 24.2,-4.69 47.71,11.2 52.39,35.41 4.68,24.2 -11.19,47.7 -35.4,52.39 -24.21,4.68 -47.71,-11.2 -52.39,-35.4 -2.18,-11.26 0.13,-22.34 5.62,-31.47 -58.4,-45.37 -133.02,-63.31 -205.77,-49.23 -138.62,26.82 -229.57,161.43 -202.75,300.05 26.83,138.63 161.42,229.58 300.05,202.75 62.23,-12.04 117.39,-46.42 155.55,-96.89l14.36 10.66c-40.83,54.07 -99.88,90.9 -166.51,103.79 -148.31,28.7 -292.31,-68.6 -321.01,-216.91 -28.7,-148.31 68.61,-292.31 216.92,-321.01z"/>
  </g>
 </g>
</svg>
