<?xml version="1.0" encoding="UTF-8"?>
<!DOCTYPE svg PUBLIC "-//W3C//DTD SVG 1.1//EN" "http://www.w3.org/Graphics/SVG/1.1/DTD/svg11.dtd">
<!-- Creator: CorelDRAW (Versão de avaliação) -->
<svg xmlns="http://www.w3.org/2000/svg" xml:space="preserve" width="878px" height="912px" version="1.1" style="shape-rendering:geometricPrecision; text-rendering:geometricPrecision; image-rendering:optimizeQuality; fill-rule:evenodd; clip-rule:evenodd"
viewBox="0 0 1672.68 1736.8"
 xmlns:xlink="http://www.w3.org/1999/xlink"
 xmlns:xodm="http://www.corel.com/coreldraw/odm/2003">
 <defs>
  <style type="text/css">
   <![CDATA[
    .fil0 {fill:#3F4096;fill-rule:nonzero}
    .fil1 {fill:url(#id0)}
    .fil2 {fill:url(#id1)}
    .fil3 {fill:url(#id2)}
   ]]>
  </style>
  <linearGradient id="id0" gradientUnits="userSpaceOnUse" x1="685.86" y1="180" x2="685.86" y2="390.88">
   <stop offset="0" style="stop-opacity:1; stop-color:#F1653F"/>
   <stop offset="0.478431" style="stop-opacity:1; stop-color:#E74E3B"/>
   <stop offset="0.980392" style="stop-opacity:1; stop-color:#DD3539"/>
   <stop offset="1" style="stop-opacity:1; stop-color:#DD3539"/>
  </linearGradient>
  <linearGradient id="id1" gradientUnits="userSpaceOnUse" xlink:href="#id0" x1="756.39" y1="582.6" x2="756.39" y2="865.64">
  </linearGradient>
  <linearGradient id="id2" gradientUnits="userSpaceOnUse" x1="516.12" y1="983.47" x2="911.04" y2="33.64">
   <stop offset="0" style="stop-opacity:1; stop-color:#1078F5"/>
   <stop offset="1" style="stop-opacity:1; stop-color:#06F2F0"/>
  </linearGradient>
 </defs>
 <g id="Camada_x0020_1">
  <metadata id="CorelCorpID_0Corel-Layer"/>
  <g id="_341022744">
   <path class="fil0" d="M785.55 231.23c13.75,0 26.02,1.49 36.8,4.47 10.79,2.97 21.01,7.06 30.68,12.27l0 257.66c0,13.01 1.95,25.19 5.86,36.53 3.9,11.34 9.2,21.29 15.89,29.84 6.69,8.55 14.59,15.24 23.7,20.08 9.11,4.83 18.69,7.24 28.73,7.24 8.55,0.38 18.31,-1.11 29.28,-4.46 10.96,-3.34 22.58,-10.97 34.85,-22.86l0.56 0.55c5.21,7.07 9.67,14.13 13.38,21.2 3.72,7.06 6.88,14.31 9.49,21.75 -12.27,9.66 -25.75,17.1 -40.44,22.31 -14.68,5.2 -30.39,7.81 -47.12,7.81 -19.71,0 -38.12,-3.72 -55.22,-11.16 -17.1,-7.43 -32.07,-17.57 -44.9,-30.39 -12.82,-12.83 -22.95,-27.8 -30.39,-44.9 -7.43,-17.1 -11.15,-35.51 -11.15,-55.21l0 -272.73z"/>
   <path class="fil0" d="M0 1616.39l80.23 0 0 20.16 -28.04 0 0 73.42 -24.42 0 0 -73.42 -27.77 0 0 -20.16zm133.55 20.56c11.75,0 20.78,3.47 27.1,10.41 6.32,6.94 9.48,16.47 9.48,28.57 0,1.87 -0.05,3.29 -0.14,4.27l-50.19 0c1.16,4.1 3.16,7.23 6.01,9.41 2.85,2.18 6.32,3.27 10.41,3.27 3.12,0 6.12,-0.62 9.01,-1.87 2.89,-1.24 5.54,-3.07 7.95,-5.47l12.41 12.41c-3.74,4.19 -8.26,7.37 -13.55,9.55 -5.29,2.18 -11.28,3.27 -17.95,3.27 -7.75,0 -14.51,-1.51 -20.29,-4.54 -5.79,-3.02 -10.22,-7.29 -13.29,-12.82 -3.07,-5.51 -4.6,-11.92 -4.6,-19.22 0,-7.38 1.55,-13.9 4.67,-19.55 3.11,-5.65 7.52,-10.01 13.22,-13.08 5.69,-3.07 12.28,-4.61 19.75,-4.61zm13.48 30.57c0,-4.18 -1.22,-7.54 -3.67,-10.08 -2.45,-2.53 -5.67,-3.8 -9.68,-3.8 -3.73,0 -6.87,1.24 -9.41,3.73 -2.53,2.5 -4.2,5.88 -5,10.15l27.76 0zm102.05 -3.47c-3.38,-4.99 -8.1,-7.48 -14.15,-7.48 -4.27,0 -7.74,1.63 -10.41,4.88 -2.67,3.24 -4,7.45 -4,12.61 0,5.25 1.33,9.48 4,12.68 2.67,3.21 6.14,4.81 10.41,4.81 6.59,0 11.3,-2.72 14.15,-8.15l17.49 10.01c-2.85,5.53 -7.12,9.8 -12.81,12.82 -5.7,3.03 -12.37,4.54 -20.03,4.54 -7.39,0 -13.88,-1.51 -19.49,-4.54 -5.6,-3.02 -9.94,-7.29 -13.01,-12.82 -3.07,-5.51 -4.61,-11.92 -4.61,-19.22 0,-7.38 1.56,-13.9 4.68,-19.55 3.11,-5.65 7.49,-10.01 13.14,-13.08 5.65,-3.07 12.17,-4.61 19.56,-4.61 7.21,0 13.61,1.49 19.22,4.47 5.61,2.99 9.97,7.19 13.08,12.62l-17.22 10.01zm96.31 -27.23c7.92,0 14.26,2.49 19.02,7.47 4.76,4.99 7.15,11.71 7.15,20.16l0 45.52 -23.63 0 0 -38.71c0,-4.1 -1.11,-7.32 -3.34,-9.68 -2.23,-2.36 -5.21,-3.54 -8.94,-3.54 -3.92,0.09 -7.15,1.38 -9.68,3.87 -2.54,2.5 -4.03,5.79 -4.47,9.88l0 38.18 -23.77 0 0 -72.22 23.77 0 0 11.75c2.58,-4.19 5.89,-7.34 9.94,-9.48 4.05,-2.14 8.7,-3.2 13.95,-3.2zm96.04 0.13c7.83,0 14.73,1.54 20.69,4.61 5.96,3.07 10.59,7.38 13.89,12.94 3.29,5.57 4.93,11.99 4.93,19.29 0,7.39 -1.64,13.86 -4.93,19.43 -3.3,5.56 -7.93,9.87 -13.89,12.94 -5.96,3.07 -12.86,4.61 -20.69,4.61 -7.83,0 -14.73,-1.54 -20.69,-4.61 -5.96,-3.07 -10.57,-7.38 -13.82,-12.94 -3.24,-5.57 -4.87,-12.04 -4.87,-19.43 0,-7.3 1.63,-13.72 4.87,-19.29 3.25,-5.56 7.86,-9.87 13.82,-12.94 5.96,-3.07 12.86,-4.61 20.69,-4.61zm0 19.22c-4.63,0 -8.36,1.65 -11.21,4.94 -2.85,3.3 -4.27,7.61 -4.27,12.95 0,5.43 1.42,9.79 4.27,13.08 2.85,3.3 6.58,4.94 11.21,4.94 4.72,0 8.5,-1.64 11.35,-4.94 2.84,-3.29 4.27,-7.65 4.27,-13.08 0,-5.34 -1.45,-9.65 -4.34,-12.95 -2.89,-3.29 -6.65,-4.94 -11.28,-4.94zm72.55 -45.25l23.76 0 0 99.05 -23.76 0 0 -99.05zm96.31 26.03c7.83,0 14.72,1.54 20.69,4.61 5.96,3.07 10.59,7.38 13.88,12.94 3.29,5.57 4.94,11.99 4.94,19.29 0,7.39 -1.65,13.86 -4.94,19.43 -3.29,5.56 -7.92,9.87 -13.88,12.94 -5.97,3.07 -12.86,4.61 -20.69,4.61 -7.84,0 -14.73,-1.54 -20.7,-4.61 -5.96,-3.07 -10.56,-7.38 -13.81,-12.94 -3.25,-5.57 -4.87,-12.04 -4.87,-19.43 0,-7.3 1.62,-13.72 4.87,-19.29 3.25,-5.56 7.85,-9.87 13.81,-12.94 5.97,-3.07 12.86,-4.61 20.7,-4.61zm0 19.22c-4.63,0 -8.37,1.65 -11.22,4.94 -2.85,3.3 -4.27,7.61 -4.27,12.95 0,5.43 1.42,9.79 4.27,13.08 2.85,3.3 6.59,4.94 11.22,4.94 4.71,0 8.5,-1.64 11.34,-4.94 2.85,-3.29 4.27,-7.65 4.27,-13.08 0,-5.34 -1.44,-9.65 -4.33,-12.95 -2.9,-3.29 -6.66,-4.94 -11.28,-4.94zm141.02 -18.42l0 65.81c0,6.67 -1.65,12.53 -4.94,17.56 -3.29,5.02 -7.9,8.89 -13.81,11.61 -5.92,2.72 -12.75,4.07 -20.49,4.07 -6.06,0 -11.88,-0.84 -17.49,-2.54 -5.61,-1.69 -10.55,-3.95 -14.82,-6.8l8.28 -16.42c3.29,2.22 6.85,3.96 10.68,5.2 3.82,1.25 7.69,1.87 11.61,1.87 5.34,0 9.57,-1.24 12.68,-3.74 3.12,-2.49 4.67,-5.87 4.67,-10.14l0 -7.74c-4.8,6.31 -11.65,9.48 -20.55,9.48 -5.97,0 -11.29,-1.45 -15.95,-4.34 -4.68,-2.9 -8.33,-6.99 -10.95,-12.28 -2.63,-5.3 -3.94,-11.37 -3.94,-18.23 0,-6.76 1.27,-12.72 3.8,-17.88 2.54,-5.17 6.12,-9.17 10.75,-12.02 4.63,-2.85 9.88,-4.27 15.75,-4.27 4.45,0 8.48,0.82 12.08,2.47 3.61,1.65 6.61,4.03 9.01,7.14l0 -8.81 23.63 0zm-38.18 50.86c4.36,0 7.88,-1.56 10.55,-4.67 2.67,-3.11 4,-7.17 4,-12.15 0,-5.07 -1.33,-9.16 -4,-12.28 -2.67,-3.12 -6.19,-4.67 -10.55,-4.67 -4.36,0 -7.9,1.58 -10.61,4.74 -2.71,3.16 -4.07,7.23 -4.07,12.21 0,4.98 1.36,9.04 4.07,12.15 2.71,3.11 6.25,4.67 10.61,4.67zm75.75 -50.86l23.63 0 0 72.22 -23.63 0 0 -72.22zm11.62 -33.24c3.65,0 6.65,1.18 9.01,3.54 2.36,2.36 3.54,5.41 3.54,9.14 0,3.65 -1.18,6.68 -3.54,9.08 -2.36,2.4 -5.36,3.61 -9.01,3.61 -3.65,0 -6.65,-1.21 -9.01,-3.61 -2.36,-2.4 -3.54,-5.43 -3.54,-9.08 0,-3.73 1.18,-6.78 3.54,-9.14 2.36,-2.36 5.36,-3.54 9.01,-3.54zm82.96 32.31c9.97,0 17.71,2.29 23.22,6.87 5.52,4.59 8.32,11.01 8.42,19.29l0 46.99 -23.37 0 0 -8.14c-4.8,6.14 -12.05,9.21 -21.76,9.21 -7.65,0 -13.68,-2.07 -18.09,-6.21 -4.4,-4.14 -6.6,-9.59 -6.6,-16.35 0,-6.86 2.38,-12.19 7.14,-16.02 4.76,-3.83 11.59,-5.79 20.49,-5.87l18.82 0 0 -0.81c0,-3.47 -1.18,-6.14 -3.53,-8 -2.36,-1.87 -5.77,-2.81 -10.22,-2.81 -3.02,0 -6.43,0.49 -10.21,1.47 -3.78,0.98 -7.58,2.4 -11.41,4.27l-6.54 -16.02c5.87,-2.67 11.5,-4.65 16.88,-5.94 5.39,-1.29 10.97,-1.93 16.76,-1.93zm-6.14 58.06c3.55,0 6.67,-0.86 9.34,-2.6 2.67,-1.73 4.36,-3.98 5.07,-6.74l0 -6.27 -14.15 0c-6.67,0 -10.01,2.49 -10.01,7.47 0,2.49 0.87,4.47 2.61,5.94 1.73,1.47 4.11,2.2 7.14,2.2zm135.42 -57.93c11.74,0 20.78,3.47 27.09,10.41 6.32,6.94 9.48,16.47 9.48,28.57 0,1.87 -0.04,3.29 -0.13,4.27l-50.19 0c1.15,4.1 3.16,7.23 6,9.41 2.85,2.18 6.32,3.27 10.42,3.27 3.11,0 6.11,-0.62 9.01,-1.87 2.89,-1.24 5.54,-3.07 7.94,-5.47l12.41 12.41c-3.73,4.19 -8.25,7.37 -13.55,9.55 -5.29,2.18 -11.27,3.27 -17.95,3.27 -7.74,0 -14.5,-1.51 -20.29,-4.54 -5.78,-3.02 -10.21,-7.29 -13.28,-12.82 -3.07,-5.51 -4.61,-11.92 -4.61,-19.22 0,-7.38 1.56,-13.9 4.68,-19.55 3.11,-5.65 7.51,-10.01 13.21,-13.08 5.7,-3.07 12.28,-4.61 19.76,-4.61zm13.48 30.57c0,-4.18 -1.23,-7.54 -3.67,-10.08 -2.45,-2.53 -5.68,-3.8 -9.68,-3.8 -3.74,0 -6.88,1.24 -9.41,3.73 -2.54,2.5 -4.21,5.88 -5.01,10.15l27.77 0zm147.03 -5.34l21.09 0 0 37.25c-4.98,3.64 -11.1,6.6 -18.35,8.87 -7.25,2.27 -14.13,3.41 -20.62,3.41 -9.44,0 -17.96,-2.12 -25.57,-6.35 -7.61,-4.22 -13.59,-10.03 -17.95,-17.42 -4.36,-7.38 -6.54,-15.66 -6.54,-24.82 0,-9.08 2.24,-17.29 6.74,-24.63 4.49,-7.35 10.68,-13.11 18.56,-17.29 7.87,-4.18 16.66,-6.27 26.36,-6.27 6.94,0 13.88,1.26 20.82,3.8 6.94,2.53 12.82,5.94 17.62,10.21l-13.88 17.09c-3.38,-3.21 -7.28,-5.74 -11.68,-7.61 -4.41,-1.87 -8.74,-2.81 -13.02,-2.81 -4.98,0 -9.47,1.21 -13.48,3.61 -4,2.4 -7.16,5.7 -9.48,9.88 -2.31,4.18 -3.47,8.85 -3.47,14.02 0,5.25 1.16,9.98 3.47,14.21 2.32,4.23 5.52,7.54 9.61,9.95 4.1,2.4 8.64,3.6 13.62,3.6 4.72,0 10.1,-1.51 16.15,-4.54l0 -24.16zm89.24 -25.23c11.74,0 20.78,3.47 27.09,10.41 6.32,6.94 9.48,16.47 9.48,28.57 0,1.87 -0.04,3.29 -0.13,4.27l-50.19 0c1.15,4.1 3.16,7.23 6,9.41 2.85,2.18 6.32,3.27 10.42,3.27 3.11,0 6.12,-0.62 9.01,-1.87 2.89,-1.24 5.54,-3.07 7.94,-5.47l12.41 12.41c-3.73,4.19 -8.25,7.37 -13.54,9.55 -5.3,2.18 -11.28,3.27 -17.96,3.27 -7.74,0 -14.5,-1.51 -20.29,-4.54 -5.78,-3.02 -10.21,-7.29 -13.28,-12.82 -3.07,-5.51 -4.61,-11.92 -4.61,-19.22 0,-7.38 1.56,-13.9 4.68,-19.55 3.11,-5.65 7.51,-10.01 13.21,-13.08 5.7,-3.07 12.28,-4.61 19.76,-4.61zm13.48 30.57c0,-4.18 -1.23,-7.54 -3.67,-10.08 -2.45,-2.53 -5.67,-3.8 -9.68,-3.8 -3.74,0 -6.88,1.24 -9.41,3.73 -2.54,2.5 -4.21,5.88 -5.01,10.15l27.77 0zm103.65 -6.94c-9.34,-4.9 -17,-7.34 -22.96,-7.34 -2.05,0 -3.69,0.38 -4.94,1.13 -1.24,0.76 -1.87,1.89 -1.87,3.41 0,1.6 0.98,2.89 2.94,3.86 1.96,0.99 5.07,2.05 9.34,3.21 5.17,1.51 9.46,3 12.89,4.47 3.42,1.47 6.38,3.7 8.87,6.67 2.49,2.99 3.74,6.88 3.74,11.69 0,7.29 -2.83,13.01 -8.48,17.15 -5.65,4.14 -13.01,6.21 -22.09,6.21 -6.14,0 -12.01,-0.87 -17.62,-2.6 -5.6,-1.74 -10.59,-4.3 -14.95,-7.68l7.47 -15.35c4.1,2.85 8.39,5.05 12.89,6.61 4.49,1.55 8.74,2.33 12.75,2.33 2.31,0 4.16,-0.38 5.53,-1.13 1.39,-0.76 2.07,-1.85 2.07,-3.27 0,-1.79 -1,-3.16 -3,-4.14 -2,-0.98 -5.14,-2.05 -9.41,-3.2 -5.07,-1.52 -9.26,-3.01 -12.55,-4.48 -3.29,-1.47 -6.16,-3.67 -8.61,-6.61 -2.45,-2.93 -3.67,-6.76 -3.67,-11.48 0,-7.29 2.76,-13.01 8.28,-17.15 5.51,-4.14 12.63,-6.21 21.36,-6.21 5.25,0 10.43,0.71 15.55,2.14 5.11,1.42 9.94,3.52 14.48,6.27l-8.01 15.49zm88.03 45.65c-2.66,1.51 -5.74,2.7 -9.21,3.54 -3.47,0.85 -6.98,1.27 -10.54,1.27 -7.12,0 -12.89,-2.05 -17.29,-6.14 -4.41,-4.1 -6.61,-9.75 -6.61,-16.96l0 -30.97 -10.01 0 0 -15.75 10.01 0 0 -20.02 23.63 0 0 20.02 18.69 0 0 15.75 -18.69 0 0 27.24c0,5.07 2.09,7.6 6.27,7.6 2.59,0 5.66,-0.8 9.21,-2.4l4.54 16.82zm64.14 -69.41c9.97,0 17.71,2.29 23.23,6.87 5.52,4.59 8.32,11.01 8.41,19.29l0 46.99 -23.36 0 0 -8.14c-4.81,6.14 -12.06,9.21 -21.76,9.21 -7.65,0 -13.68,-2.07 -18.09,-6.21 -4.4,-4.14 -6.61,-9.59 -6.61,-16.35 0,-6.86 2.38,-12.19 7.14,-16.02 4.77,-3.83 11.6,-5.79 20.49,-5.87l18.83 0 0 -0.81c0,-3.47 -1.18,-6.14 -3.54,-8 -2.36,-1.87 -5.76,-2.81 -10.21,-2.81 -3.03,0 -6.43,0.49 -10.22,1.47 -3.78,0.98 -7.58,2.4 -11.41,4.27l-6.54 -16.02c5.88,-2.67 11.5,-4.65 16.89,-5.94 5.38,-1.29 10.97,-1.93 16.75,-1.93zm-6.14 58.06c3.56,0 6.68,-0.86 9.34,-2.6 2.67,-1.73 4.36,-3.98 5.08,-6.74l0 -6.27 -14.15 0c-6.68,0 -10.01,2.49 -10.01,7.47 0,2.49 0.86,4.47 2.6,5.94 1.73,1.47 4.12,2.2 7.14,2.2zm29.1 -85.83c0,6.94 -1.02,12.19 -3.07,15.76 -2.05,3.55 -5.34,5.33 -9.88,5.33 -2.13,0 -4.09,-0.33 -5.87,-1 -1.78,-0.67 -3.87,-1.62 -6.27,-2.87 -2.5,-1.42 -4.36,-2.13 -5.61,-2.13 -2.49,0 -3.74,1.86 -3.74,5.6l-13.48 0c0,-6.94 1.02,-12.21 3.07,-15.82 2.05,-3.6 5.38,-5.4 10.01,-5.4 2.05,0 4,0.35 5.87,1.06 1.87,0.72 3.92,1.65 6.14,2.81 2.67,1.42 4.54,2.13 5.61,2.13 2.58,0 3.87,-1.82 3.87,-5.47l13.35 0zm78.42 27.9c7.83,0 14.73,1.54 20.69,4.61 5.96,3.07 10.59,7.38 13.89,12.94 3.29,5.57 4.93,11.99 4.93,19.29 0,7.39 -1.64,13.86 -4.93,19.43 -3.3,5.56 -7.93,9.87 -13.89,12.94 -5.96,3.07 -12.86,4.61 -20.69,4.61 -7.83,0 -14.73,-1.54 -20.69,-4.61 -5.96,-3.07 -10.57,-7.38 -13.82,-12.94 -3.25,-5.57 -4.87,-12.04 -4.87,-19.43 0,-7.3 1.62,-13.72 4.87,-19.29 3.25,-5.56 7.86,-9.87 13.82,-12.94 5.96,-3.07 12.86,-4.61 20.69,-4.61zm0 19.22c-4.63,0 -8.36,1.65 -11.21,4.94 -2.85,3.3 -4.27,7.61 -4.27,12.95 0,5.43 1.42,9.79 4.27,13.08 2.85,3.3 6.58,4.94 11.21,4.94 4.72,0 8.5,-1.64 11.35,-4.94 2.84,-3.29 4.27,-7.65 4.27,-13.08 0,-5.34 -1.45,-9.65 -4.34,-12.95 -2.89,-3.29 -6.65,-4.94 -11.28,-4.94z"/>
   <path class="fil1" d="M553.91 371.62c26.61,-5.15 44.05,-30.98 38.89,-57.56 -5.14,-26.6 -30.95,-44.05 -57.54,-38.91 -26.6,5.16 -44.05,30.98 -38.91,57.56 5.16,26.61 30.98,44.05 57.56,38.91zm-24.88 -128.61c21.72,-4.2 43.11,0.68 60.31,11.94 45.88,-42.55 102.4,-71.23 164.31,-83.22 51.54,-9.97 105.16,-7.71 155.36,6.52l-9.33 31.39c-45.7,-12.93 -92.72,-14.86 -139.8,-5.75 -55.39,10.71 -106,36.24 -147.21,74.05 5.89,8.79 10.16,18.87 12.29,29.89 8.58,44.32 -20.5,87.36 -64.82,95.93 -44.32,8.58 -87.35,-20.5 -95.93,-64.82 -8.57,-44.32 20.5,-87.35 64.82,-95.93z"/>
   <path class="fil2" d="M951.86 851.29c26.59,-5.16 44.03,-30.98 38.89,-57.56 -5.14,-26.6 -30.96,-44.05 -57.56,-38.89 -26.59,5.14 -44.03,30.96 -38.89,57.54 5.14,26.61 30.96,44.05 57.56,38.91zm-91.19 -49.51c0.58,-37.91 27.63,-71.61 66.31,-79.1 44.32,-8.57 87.35,20.5 95.93,64.82 8.57,44.32 -20.52,87.36 -64.84,95.93 -38.95,7.55 -76.89,-14.02 -91.34,-49.46 -175.32,26.06 -342.35,-89.66 -378.36,-264.46l32.16 -6.21c32.59,157.13 182.49,261.25 340.14,238.48z"/>
   <path class="fil3" d="M1184.58 221.76c26.6,-5.14 44.04,-30.96 38.9,-57.56 -5.15,-26.59 -30.97,-44.03 -57.56,-38.89 -26.59,5.16 -44.04,30.97 -38.89,57.56 5.14,26.59 30.96,44.05 57.55,38.89zm-462.38 -212.57c143.38,-27.74 290.46,8.01 405.15,98.06 9.36,-6.78 20.27,-11.75 32.34,-14.1 44.32,-8.57 87.36,20.52 95.93,64.84 8.58,44.32 -20.49,87.35 -64.82,95.93 -44.32,8.57 -87.35,-20.51 -95.93,-64.82 -3.98,-20.62 0.25,-40.9 10.3,-57.62 -106.93,-83.06 -243.55,-115.91 -376.76,-90.14 -253.81,49.11 -420.35,295.58 -371.24,549.39 49.13,253.83 295.57,420.36 549.4,371.23 113.94,-22.04 214.94,-84.99 284.8,-177.41l26.3 19.53c-74.76,99 -182.87,166.43 -304.89,190.04 -271.54,52.55 -535.2,-125.62 -587.75,-397.16 -52.56,-271.55 125.62,-535.23 397.17,-587.77z"/>
   <path class="fil0" d="M17.17 1030.72c15.73,0 29.75,1.69 42.08,5.1 12.33,3.4 24.02,8.07 35.07,14.02l0 294.58c0,14.88 2.23,28.8 6.69,41.77 4.47,12.96 10.52,24.33 18.17,34.11 7.66,9.77 16.69,17.43 27.1,22.95 10.42,5.53 21.36,8.29 32.84,8.29 9.78,0.42 20.94,-1.28 33.47,-5.1 12.55,-3.83 25.83,-12.54 39.86,-26.14l0.63 0.63c5.95,8.08 11.06,16.16 15.31,24.23 4.25,8.08 7.86,16.37 10.84,24.87 -14.03,11.05 -29.44,19.55 -46.23,25.51 -16.79,5.95 -34.75,8.92 -53.88,8.92 -22.53,0 -43.57,-4.25 -63.12,-12.75 -19.56,-8.5 -36.67,-20.08 -51.33,-34.75 -14.67,-14.67 -26.25,-31.77 -34.75,-51.33 -8.5,-19.55 -12.75,-40.59 -12.75,-63.12l0 -311.79zm337.29 119.87c-12.32,0 -22.63,-4.26 -30.92,-12.76 -8.29,-8.5 -12.43,-18.91 -12.43,-31.24 0,-12.33 4.14,-22.63 12.43,-30.92 8.29,-8.29 18.6,-12.44 30.92,-12.44 12.33,0 22.75,4.15 31.25,12.44 8.5,8.29 12.75,18.59 12.75,30.92 0,12.33 -4.25,22.74 -12.75,31.24 -8.5,8.5 -18.92,12.76 -31.25,12.76zm-38.89 64.39c11.05,-5.95 22.85,-10.73 35.39,-14.34 12.54,-3.61 26.67,-5.42 42.4,-5.42l0 281.19c-18.28,9.77 -39.11,15.94 -62.49,18.49l-15.3 0 0 -279.92zm452.07 129.44c0,22.53 -4.25,43.57 -12.75,63.12 -8.51,19.56 -20.09,36.67 -34.76,51.33 -14.66,14.67 -31.88,26.25 -51.64,34.75 -19.77,8.5 -40.91,12.75 -63.44,12.75 -22.53,0 -43.57,-4.25 -63.13,-12.75 -19.55,-8.5 -36.66,-20.08 -51.33,-34.75 -14.66,-14.66 -26.24,-31.77 -34.75,-51.33 -8.5,-19.55 -12.75,-40.59 -12.75,-63.12 0,-22.53 4.25,-43.57 12.75,-63.12 8.51,-19.56 20.09,-36.67 34.75,-51.33 14.67,-14.67 31.78,-26.25 51.33,-34.75 19.56,-8.5 40.6,-12.75 63.13,-12.75 24.22,0 46.75,4.89 67.58,14.66l0 81.62c-7.65,-13.18 -17.32,-23.7 -29.01,-31.57 -11.69,-7.86 -24.55,-11.79 -38.57,-11.79 -11.48,0 -22.32,2.87 -32.52,8.61 -10.2,5.74 -19.13,13.49 -26.78,23.27 -7.65,9.78 -13.71,21.25 -18.17,34.43 -4.47,13.18 -6.7,27.42 -6.7,42.72 0,14.88 2.23,29.01 6.7,42.4 4.46,13.39 10.52,24.98 18.17,34.75 7.65,9.78 16.58,17.54 26.78,23.27 10.2,5.74 21.04,8.61 32.52,8.61 11.47,0 22.31,-2.87 32.51,-8.61 10.21,-5.73 19.13,-13.49 26.78,-23.27 7.66,-9.77 13.82,-21.14 18.49,-34.11 4.68,-12.97 7.02,-26.89 7.02,-41.76l0 -293.31c11.05,-5.95 22.85,-10.62 35.39,-14.02 12.54,-3.4 26.67,-5.11 42.4,-5.11l0 311.16zm197.66 -162.59c18.28,0 35.71,3.29 52.28,9.88 16.58,6.59 30.93,15.41 43.04,26.46 12.12,11.06 21.68,23.81 28.69,38.26 7.02,14.45 10.1,29.54 9.25,45.27 -0.85,18.7 -7.01,34.54 -18.49,47.5 -11.48,12.97 -26.25,22.96 -44.31,29.97 -18.07,7.02 -38.69,11.26 -61.85,12.75 -23.17,1.49 -46.87,-0.1 -71.1,-4.78 -5.95,-15.3 -8.92,-31.03 -8.92,-47.18l0 -7.65c31.88,6.37 56.85,8.29 74.92,5.73 18.06,-2.55 31.56,-7.01 40.48,-13.38 8.93,-6.38 14.46,-13.08 16.58,-20.09 2.13,-7.01 3.19,-11.8 3.19,-14.35 0,-2.12 -0.53,-6.05 -1.59,-11.79 -1.07,-5.74 -3.83,-11.59 -8.29,-17.54 -4.47,-5.95 -11.05,-11.15 -19.77,-15.62 -8.71,-4.46 -20.93,-6.69 -36.66,-6.69 -12.33,0 -23.49,2.65 -33.48,7.97 -9.99,5.31 -18.59,12.75 -25.82,22.31 -7.23,9.57 -12.86,21.04 -16.9,34.44 -4.04,13.39 -6.05,27.94 -6.05,43.67 0,14.88 2.23,28.69 6.69,41.45 4.46,12.75 10.52,23.91 18.17,33.47 7.65,9.57 16.58,17.11 26.78,22.64 10.2,5.52 21.26,8.29 33.16,8.29 10.2,0.85 19.77,-0.11 28.69,-2.87 8.93,-2.77 16.79,-6.27 23.59,-10.52 7.65,-4.68 14.88,-10.21 21.68,-16.58l37.62 38.25c-14.45,14.03 -31.24,25.08 -50.37,33.16 -19.13,8.08 -39.53,12.11 -61.21,12.11 -22.53,0 -43.68,-4.25 -63.44,-12.75 -19.77,-8.5 -36.99,-20.08 -51.65,-34.75 -14.67,-14.66 -26.25,-31.77 -34.75,-51.33 -8.5,-19.55 -12.75,-40.59 -12.75,-63.12 0,-22.53 4.25,-43.68 12.75,-63.44 8.5,-19.77 20.08,-36.98 34.75,-51.65 14.66,-14.66 31.88,-26.25 51.65,-34.75 19.76,-8.5 40.91,-12.75 63.44,-12.75zm327.09 8.93c9.78,0 19.24,0.85 28.38,2.55 9.14,1.7 17.96,4.25 26.46,7.65l-21.68 48.46c-11.05,-4.25 -22.1,-5.95 -33.16,-5.1 -11.47,0 -22.31,2.86 -32.52,8.6 -10.2,5.74 -19.12,13.5 -26.77,23.28 -7.65,9.77 -13.71,21.25 -18.18,34.43 -4.46,13.17 -6.69,27.2 -6.69,42.08l0 123.06c-11.05,5.95 -22.85,10.63 -35.39,14.03 -12.54,3.4 -26.67,5.1 -42.4,5.1l0 -142.19c0,-22.1 4.25,-43.04 12.75,-62.81 8.5,-19.76 20.09,-36.98 34.75,-51.64 14.67,-14.67 31.78,-26.25 51.33,-34.75 19.55,-8.5 40.59,-12.75 63.12,-12.75zm216.79 -8.29c22.53,0 43.57,4.25 63.13,12.75 19.55,8.5 36.66,20.08 51.33,34.75 14.66,14.66 26.24,31.77 34.74,51.33 8.51,19.55 12.76,40.59 12.76,63.12l0 151.75c-15.31,0 -29.23,-1.7 -41.77,-5.1 -12.54,-3.4 -24.33,-8.07 -35.38,-14.02l0 -132.63c0,-7.65 -0.54,-14.98 -1.6,-22 -1.06,-7.01 -2.66,-13.92 -4.78,-20.72 -6.8,-19.55 -17.11,-35.49 -30.93,-47.82 -13.81,-12.33 -29.64,-18.49 -47.5,-18.49 -11.47,0 -22.42,2.87 -32.83,8.61 -10.42,5.74 -19.45,13.49 -27.1,23.27 -7.65,9.78 -13.71,21.25 -18.17,34.43 -4.47,13.18 -6.7,27.42 -6.7,42.72 0,14.88 2.23,28.91 6.7,42.08 4.46,13.18 10.52,24.66 18.17,34.43 7.65,9.78 16.68,17.54 27.1,23.28 10.41,5.74 21.36,8.61 32.83,8.61 13.61,0 26.25,-3.83 37.94,-11.48 11.69,-7.65 21.57,-18.28 29.65,-31.88l0 82.25c-10.2,4.67 -20.93,8.29 -32.2,10.84 -11.26,2.55 -23.06,3.82 -35.39,3.82 -22.53,0 -43.57,-4.25 -63.12,-12.75 -19.55,-8.5 -36.66,-20.08 -51.33,-34.75 -14.66,-14.66 -26.25,-31.77 -34.75,-51.33 -8.5,-19.55 -12.75,-40.59 -12.75,-63.12 0,-22.53 4.25,-43.57 12.75,-63.12 8.5,-19.56 20.09,-36.67 34.75,-51.33 14.67,-14.67 31.78,-26.25 51.33,-34.75 19.55,-8.5 40.59,-12.75 63.12,-12.75z"/>
  </g>
 </g>
</svg>
