<?xml version="1.0" encoding="UTF-8"?>
<!DOCTYPE svg PUBLIC "-//W3C//DTD SVG 1.1//EN" "http://www.w3.org/Graphics/SVG/1.1/DTD/svg11.dtd">
<!-- Creator: CorelDRAW (Versão de avaliação) -->
<svg xmlns="http://www.w3.org/2000/svg" xml:space="preserve" width="494px" height="527px" version="1.1" style="shape-rendering:geometricPrecision; text-rendering:geometricPrecision; image-rendering:optimizeQuality; fill-rule:evenodd; clip-rule:evenodd"
viewBox="0 0 105.56 112.51"
 xmlns:xlink="http://www.w3.org/1999/xlink"
 xmlns:xodm="http://www.corel.com/coreldraw/odm/2003">
 <defs>
  <style type="text/css">
   <![CDATA[
    .fil1 {fill:white}
    .fil0 {fill:white;fill-rule:nonzero}
   ]]>
  </style>
 </defs>
 <g id="Camada_x0020_1">
  <metadata id="CorelCorpID_0Corel-Layer"/>
  <path class="fil0" d="M52.67 25.93c1.55,0 2.92,0.17 4.13,0.5 1.21,0.33 2.36,0.79 3.44,1.38l0 28.89c0,1.46 0.22,2.83 0.66,4.1 0.44,1.27 1.03,2.39 1.78,3.34 0.75,0.96 1.64,1.71 2.66,2.26 1.02,0.54 2.09,0.81 3.22,0.81 0.96,0.04 2.05,-0.13 3.28,-0.5 1.23,-0.38 2.54,-1.23 3.91,-2.57l0.06 0.07c0.59,0.79 1.09,1.58 1.51,2.37 0.41,0.8 0.77,1.61 1.06,2.44 -1.38,1.09 -2.89,1.92 -4.54,2.5 -1.64,0.59 -3.4,0.88 -5.28,0.88 -2.21,0 -4.27,-0.42 -6.19,-1.25 -1.92,-0.83 -3.6,-1.97 -5.04,-3.41 -1.44,-1.44 -2.57,-3.12 -3.41,-5.03 -0.83,-1.92 -1.25,-3.99 -1.25,-6.2l0 -30.58z"/>
  <path class="fil1" d="M26.7 41.67c2.98,-0.57 4.94,-3.47 4.36,-6.45 -0.58,-2.98 -3.47,-4.94 -6.45,-4.36 -2.99,0.57 -4.94,3.47 -4.37,6.45 0.58,2.98 3.48,4.94 6.46,4.36zm-2.79 -14.42c2.43,-0.47 4.83,0.08 6.76,1.34 5.15,-4.77 11.48,-7.99 18.43,-9.33 5.78,-1.12 11.79,-0.87 17.42,0.73l-1.05 3.52c-5.12,-1.45 -10.4,-1.67 -15.68,-0.65 -6.21,1.21 -11.88,4.07 -16.5,8.31 0.66,0.98 1.14,2.12 1.38,3.35 0.96,4.97 -2.3,9.8 -7.27,10.76 -4.97,0.96 -9.8,-2.3 -10.76,-7.27 -0.96,-4.97 2.3,-9.8 7.27,-10.76z"/>
  <path class="fil1" d="M71.32 95.46c2.99,-0.57 4.94,-3.47 4.37,-6.45 -0.58,-2.98 -3.48,-4.94 -6.46,-4.36 -2.98,0.57 -4.94,3.47 -4.36,6.45 0.58,2.98 3.47,4.94 6.45,4.36zm-10.22 -5.55c0.06,-4.25 3.1,-8.03 7.43,-8.87 4.97,-0.96 9.8,2.3 10.76,7.27 0.96,4.97 -2.3,9.8 -7.27,10.76 -4.37,0.85 -8.62,-1.57 -10.24,-5.55 -19.66,2.93 -38.39,-10.05 -42.43,-29.65l3.6 -0.7c3.66,17.62 20.47,29.3 38.15,26.74z"/>
  <path class="fil1" d="M97.42 24.87c2.98,-0.58 4.94,-3.47 4.36,-6.46 -0.57,-2.98 -3.47,-4.93 -6.45,-4.36 -2.98,0.58 -4.94,3.48 -4.36,6.46 0.57,2.98 3.47,4.94 6.45,4.36zm-51.85 -23.84c16.08,-3.11 32.57,0.9 45.43,11 1.05,-0.76 2.28,-1.32 3.63,-1.58 4.97,-0.97 9.8,2.3 10.76,7.27 0.96,4.97 -2.3,9.79 -7.27,10.75 -4.97,0.97 -9.8,-2.3 -10.76,-7.26 -0.45,-2.32 0.03,-4.59 1.16,-6.47 -11.99,-9.31 -27.32,-12.99 -42.25,-10.1 -28.47,5.5 -47.14,33.14 -41.63,61.61 5.5,28.46 33.14,47.13 61.61,41.63 12.77,-2.48 24.1,-9.54 31.93,-19.9l2.95 2.19c-8.38,11.1 -20.51,18.66 -34.19,21.31 -30.45,5.89 -60.02,-14.09 -65.91,-44.54 -5.89,-30.45 14.09,-60.02 44.54,-65.91z"/>
 </g>
</svg>
